<svg xmlns="http://www.w3.org/2000/svg" xmlns:xlink="http://www.w3.org/1999/xlink" width="330" height="25" viewBox="0 0 330 25">
  <defs>
    <clipPath id="clip-画板_2">
      <rect width="330" height="25"/>
    </clipPath>
  </defs>
  <g id="画板_2" data-name="画板 – 2" clip-path="url(#clip-画板_2)">
    <rect width="330" height="25" fill="#fff"/>
    <g id="组_6" data-name="组 6" transform="translate(-149.075 -352.438)">
      <g id="组_5042" data-name="组 5042" transform="translate(155.068 354.171)">
        <g id="组_5041" data-name="组 5041">
          <path id="路径_2259" data-name="路径 2259" d="M169.973,365.888H159.643v-9.235h-4.575v22.891h4.575v-9.3h10.329v9.3h4.574V356.653h-4.574Z" transform="translate(-155.068 -356.65)"/>
          <path id="路径_2260" data-name="路径 2260" d="M232.637,369.753c0,3.721-1.82,5.708-5.125,5.708-3.324,0-5.155-2.043-5.155-5.866V356.667h-4.574v13.085c0,6.437,3.524,10.129,9.668,10.129,6.2,0,9.76-3.761,9.76-10.318V356.654h-4.574Z" transform="translate(-191.962 -356.651)"/>
          <path id="路径_2261" data-name="路径 2261" d="M348.24,372.389l-5.12-15.743h-3.733l-5.119,15.743-4.98-15.73h-4.869l7.857,22.88h3.789l5.127-15.03,5.126,15.03h3.82l7.838-22.88h-4.744Z" transform="translate(-254.695 -356.646)"/>
          <path id="路径_2262" data-name="路径 2262" d="M419.394,369.715h8.321v-4.169h-8.321V360.86h12.078v-4.169H414.881v22.861h17.026v-4.169H419.394Z" transform="translate(-307.912 -356.672)"/>
          <rect id="矩形_1266" data-name="矩形 1266" width="4.513" height="22.861" transform="translate(129.451 0.002)"/>
          <path id="路径_2263" data-name="路径 2263" d="M287.645,374.766l2.024,4.765h4.794l-9.9-22.877h-4.031L270.6,379.531h4.669l2.054-4.765Zm-5.17-12.32,3.47,8.193h-6.916Z" transform="translate(-223.036 -356.651)"/>
        </g>
      </g>
      <g id="组_5043" data-name="组 5043" transform="translate(302.628 352.58)">
        <path id="路径_2264" data-name="路径 2264" d="M513.471,356.769h12.3l-.314,2.532h-9.178v7.249h8.6v2.437h-8.6v10.551h-2.81Z" transform="translate(-513.471 -355.127)"/>
        <path id="路径_2265" data-name="路径 2265" d="M550.382,374.592q0-1.394-.12-4.181H552.8q.09.7.165,1.68t.1,1.557a14.944,14.944,0,0,1,1.286-1.859,5.142,5.142,0,0,1,1.48-1.231,3.944,3.944,0,0,1,1.943-.472,5,5,0,0,1,1.465.2l-.388,2.525a4.526,4.526,0,0,0-1.2-.155,3.745,3.745,0,0,0-2.347.782,10.706,10.706,0,0,0-2.182,2.532v11.058h-2.75Z" transform="translate(-535.115 -362.618)"/>
        <path id="路径_2266" data-name="路径 2266" d="M586.551,378.82H575.833a7.111,7.111,0,0,0,1.368,4.669,4.815,4.815,0,0,0,3.864,1.557,10.311,10.311,0,0,0,4.53-1.069l.643,2.044a11.588,11.588,0,0,1-2.564.976,12.959,12.959,0,0,1-3.146.341,7.821,7.821,0,0,1-4.088-1.006,6.328,6.328,0,0,1-2.542-2.9,10.991,10.991,0,0,1-.86-4.561,11.4,11.4,0,0,1,.9-4.724,6.829,6.829,0,0,1,2.5-3.02,6.671,6.671,0,0,1,3.7-1.038,5.872,5.872,0,0,1,3.6,1.069,6.286,6.286,0,0,1,2.13,2.811,10.22,10.22,0,0,1,.688,3.787Zm-2.765-2.013a5.829,5.829,0,0,0-1.129-3.446,3.267,3.267,0,0,0-2.623-1.154,3.5,3.5,0,0,0-2.7,1.17,6.255,6.255,0,0,0-1.383,3.43Z" transform="translate(-548.513 -362.618)"/>
        <path id="路径_2267" data-name="路径 2267" d="M624.722,378.82H614a7.116,7.116,0,0,0,1.368,4.669,4.816,4.816,0,0,0,3.865,1.557,10.307,10.307,0,0,0,4.529-1.069l.643,2.044a11.591,11.591,0,0,1-2.564.976,12.958,12.958,0,0,1-3.147.341,7.824,7.824,0,0,1-4.088-1.006,6.326,6.326,0,0,1-2.541-2.9,10.987,10.987,0,0,1-.859-4.561,11.393,11.393,0,0,1,.9-4.724,6.832,6.832,0,0,1,2.5-3.02,6.671,6.671,0,0,1,3.7-1.038,5.873,5.873,0,0,1,3.6,1.069,6.289,6.289,0,0,1,2.13,2.811,10.217,10.217,0,0,1,.688,3.787Zm-2.765-2.013a5.827,5.827,0,0,0-1.129-3.446,3.267,3.267,0,0,0-2.623-1.154,3.5,3.5,0,0,0-2.7,1.17,6.255,6.255,0,0,0-1.383,3.43Z" transform="translate(-570.969 -362.618)"/>
        <path id="路径_2268" data-name="路径 2268" d="M664.869,368.24a5.377,5.377,0,0,1,1.786,2,6.116,6.116,0,0,1,.651,2.878,6.36,6.36,0,0,1-.875,3.342,5.849,5.849,0,0,1-2.556,2.264,9.246,9.246,0,0,1-4.044.81h-6.458V356.769h5.995a7.8,7.8,0,0,1,5,1.376,4.64,4.64,0,0,1,1.7,3.813,5.321,5.321,0,0,1-1.039,3.326,5.664,5.664,0,0,1-2.773,1.942A6.626,6.626,0,0,1,664.869,368.24Zm-8.73-1.958h2.721a4.726,4.726,0,0,0,2.317-.551,3.894,3.894,0,0,0,1.54-1.486,4.039,4.039,0,0,0,.538-2.052,2.649,2.649,0,0,0-1.084-2.312,5.4,5.4,0,0,0-3.146-.77h-2.885Zm7.13,9.828a3.9,3.9,0,0,0,1.24-3.1,3.993,3.993,0,0,0-1.39-3.286,6.179,6.179,0,0,0-3.991-1.132h-2.99v8.6H659.5A5.6,5.6,0,0,0,663.27,376.11Z" transform="translate(-595.774 -355.127)"/>
        <path id="路径_2269" data-name="路径 2269" d="M696.43,386.231a7.654,7.654,0,0,1-1.218-4.731V370.875h2.705v10.469a5.175,5.175,0,0,0,.755,3.144,2.635,2.635,0,0,0,2.22.976,4.782,4.782,0,0,0,2.548-.751,9.372,9.372,0,0,0,2.22-1.928v-11.91h2.75v12.452q0,1.735.135,4.166h-2.467q-.1-.48-.194-1.231t-.134-1.294a12.47,12.47,0,0,1-2.571,2.06,5.928,5.928,0,0,1-3.065.774A4.372,4.372,0,0,1,696.43,386.231Z" transform="translate(-620.386 -363.082)"/>
        <path id="路径_2270" data-name="路径 2270" d="M746.894,377.188q-.179-.974-.284-2.1a7.025,7.025,0,0,1-2.182,1.767,6.044,6.044,0,0,1-2.825.651,5.764,5.764,0,0,1-3.064-.84,5.852,5.852,0,0,1-2.213-2.67,11.222,11.222,0,0,1-.837-4.656,12.742,12.742,0,0,1,.882-4.948,7.156,7.156,0,0,1,2.549-3.243,6.862,6.862,0,0,1,3.969-1.139,9.97,9.97,0,0,1,1.891.189,14.155,14.155,0,0,1,1.741.44V353.1l2.751-.314v20.15q0,2.073.12,4.256Zm-2.228-2.725a5.9,5.9,0,0,0,1.854-1.563V362.849a14.377,14.377,0,0,0-1.726-.447,8.762,8.762,0,0,0-1.667-.18,4.13,4.13,0,0,0-2.533.793,5.012,5.012,0,0,0-1.652,2.364,11.12,11.12,0,0,0-.583,3.848,7.49,7.49,0,0,0,1.069,4.5,3.313,3.313,0,0,0,2.758,1.405A4.967,4.967,0,0,0,744.666,374.463Z" transform="translate(-644.08 -352.782)"/>
        <path id="路径_2271" data-name="路径 2271" d="M778.608,387.051a9.09,9.09,0,0,1-2.153-.751l.688-2.122a8.858,8.858,0,0,0,1.958.689,9.448,9.448,0,0,0,2.2.271,4.1,4.1,0,0,0,2.586-.7,2.3,2.3,0,0,0,.882-1.9,2.045,2.045,0,0,0-.4-1.278,3.418,3.418,0,0,0-1.144-.914q-.747-.4-2.212-.984a13.734,13.734,0,0,1-2.339-1.2,4.538,4.538,0,0,1-1.436-1.495,4.139,4.139,0,0,1-.516-2.121,4.424,4.424,0,0,1,.62-2.37,4.009,4.009,0,0,1,1.816-1.549,6.961,6.961,0,0,1,2.885-.542,10.855,10.855,0,0,1,4.753,1.131l-.538,2.045a10.782,10.782,0,0,0-2.071-.774,8.016,8.016,0,0,0-2.025-.279,3.373,3.373,0,0,0-2.085.565,1.791,1.791,0,0,0-.74,1.495,1.672,1.672,0,0,0,.381,1.108,3.433,3.433,0,0,0,1.061.813q.68.356,2.085.945a21.417,21.417,0,0,1,2.422,1.208,4.5,4.5,0,0,1,1.487,1.478,4.385,4.385,0,0,1,.591,2.378,5.051,5.051,0,0,1-.71,2.7,4.7,4.7,0,0,1-2.093,1.8,7.886,7.886,0,0,1-3.341.642A11.721,11.721,0,0,1,778.608,387.051Z" transform="translate(-668.18 -362.618)"/>
      </g>
      <g id="组_5044" data-name="组 5044" transform="translate(431.992 354.221)">
        <path id="路径_2272" data-name="路径 2272" d="M827.679,356.769h5.441a9.286,9.286,0,0,1,6.024,1.706,6.03,6.03,0,0,1,2.078,4.946,7.716,7.716,0,0,1-.979,3.939,6.656,6.656,0,0,1-2.743,2.611,8.605,8.605,0,0,1-4.036.92,12.586,12.586,0,0,1-2.974-.362v9.01h-2.81ZM837,367.186a4.77,4.77,0,0,0,1.4-3.656,3.936,3.936,0,0,0-1.367-3.349,6.479,6.479,0,0,0-3.969-1.038h-2.571v9.089a13.322,13.322,0,0,0,2.451.267A5.711,5.711,0,0,0,837,367.186Z" transform="translate(-827.679 -356.769)"/>
        <path id="路径_2273" data-name="路径 2273" d="M867.566,374.592q0-1.394-.119-4.181h2.541q.09.7.165,1.68t.1,1.557a15.043,15.043,0,0,1,1.286-1.859,5.143,5.143,0,0,1,1.48-1.231,3.944,3.944,0,0,1,1.943-.472,5.006,5.006,0,0,1,1.465.2l-.389,2.525a4.523,4.523,0,0,0-1.2-.155,3.744,3.744,0,0,0-2.347.782,10.689,10.689,0,0,0-2.182,2.532v11.058h-2.751Z" transform="translate(-851.074 -364.259)"/>
        <path id="路径_2274" data-name="路径 2274" d="M893.819,386.339a6.853,6.853,0,0,1-2.639-2.9,10.047,10.047,0,0,1-.956-4.554,10.636,10.636,0,0,1,.956-4.654,7.432,7.432,0,0,1,10.479-3.09,7.045,7.045,0,0,1,2.631,3.012,10.454,10.454,0,0,1,.942,4.576,10.17,10.17,0,0,1-.979,4.623,7.03,7.03,0,0,1-2.7,2.966,7.488,7.488,0,0,1-3.9,1.022A7.36,7.36,0,0,1,893.819,386.339Zm7.421-2.9a7.85,7.85,0,0,0,1.121-4.507,8.508,8.508,0,0,0-1.189-4.786,3.928,3.928,0,0,0-3.49-1.781,3.869,3.869,0,0,0-3.461,1.726,8.265,8.265,0,0,0-1.144,4.623,9.4,9.4,0,0,0,.553,3.407,4.63,4.63,0,0,0,1.629,2.184,4.4,4.4,0,0,0,2.6.759A3.829,3.829,0,0,0,901.24,383.435Z" transform="translate(-864.473 -364.259)"/>
      </g>
    </g>
  </g>
</svg>
