<svg xmlns="http://www.w3.org/2000/svg" width="396.687" height="25" viewBox="0 0 396.687 25">
  <path id="路径_2444" data-name="路径 2444" d="M656.078-656.8a7.588,7.588,0,0,1-2.856,3.217,7.7,7.7,0,0,1-4.1,1.114,7.583,7.583,0,0,1-4.062-1.1,7.4,7.4,0,0,1-2.784-3.167,11.123,11.123,0,0,1-1-4.9,11.566,11.566,0,0,1,1-4.968,7.726,7.726,0,0,1,2.808-3.3,7.491,7.491,0,0,1,4.151-1.164,7.406,7.406,0,0,1,4.086,1.147,7.678,7.678,0,0,1,2.791,3.259,11.313,11.313,0,0,1,1,4.91A11.08,11.08,0,0,1,656.078-656.8Zm-1.675-8.855a6.051,6.051,0,0,0-2.032-2.748,5.341,5.341,0,0,0-3.253-.988,5.3,5.3,0,0,0-3.213.964,5.759,5.759,0,0,0-1.974,2.68,11.018,11.018,0,0,0-.656,3.946,10.617,10.617,0,0,0,.712,4.08,5.77,5.77,0,0,0,2.063,2.639,5.592,5.592,0,0,0,3.229.921,5.413,5.413,0,0,0,3.172-.913,5.536,5.536,0,0,0,1.974-2.589,10.6,10.6,0,0,0,.664-3.921A11.14,11.14,0,0,0,654.4-665.653Zm-16.516-3.569a3.9,3.9,0,0,0-1.8.419,5.565,5.565,0,0,0-1.562,1.24,20.157,20.157,0,0,0-1.667,2.177V-652.8h-1.91v-13.354q0-1.021-.049-2.245c-.032-.815-.055-1.351-.065-1.608l-.032-.7h1.732q.1.721.17,1.726t.105,1.726a17.88,17.88,0,0,1,1.5-2.044,5.691,5.691,0,0,1,1.586-1.273,4.266,4.266,0,0,1,2.064-.486,5.2,5.2,0,0,1,1.57.234l-.308,1.793A5.089,5.089,0,0,0,637.887-669.221Zm-14.712,6.015a9.345,9.345,0,0,1-4.386.988,15.2,15.2,0,0,1-3.5-.419v9.836h-1.975v-24.261h5.47a9.6,9.6,0,0,1,6.223,1.759,6.286,6.286,0,0,1,2.144,5.161A8.121,8.121,0,0,1,626.113-666,7.133,7.133,0,0,1,623.176-663.206Zm-4.451-12.1h-3.431v10.991a18.253,18.253,0,0,0,3.14.3,8.351,8.351,0,0,0,3.682-.737,5.093,5.093,0,0,0,2.282-2.1,6.43,6.43,0,0,0,.769-3.208Q625.166-675.3,618.725-675.3Zm-18,22.535H586.167v-1.569l2.435-2.388q3.692-3.672,5.555-5.742a20.276,20.276,0,0,0,2.895-4.023,8.454,8.454,0,0,0,1.032-3.99,5.518,5.518,0,0,0-.661-2.83,4.117,4.117,0,0,0-1.782-1.669,5.759,5.759,0,0,0-2.54-.542,6.331,6.331,0,0,0-3.064.751,10.691,10.691,0,0,0-2.692,2.153l-.855-1.619a9.392,9.392,0,0,1,2.976-2.237,8.655,8.655,0,0,1,3.765-.8,7.6,7.6,0,0,1,3.443.777,5.9,5.9,0,0,1,2.476,2.32,7.135,7.135,0,0,1,.919,3.715,9.125,9.125,0,0,1-1.169,4.382,22.079,22.079,0,0,1-3.088,4.282q-1.919,2.119-5.612,5.776l-1.4,1.4H601.05Zm-34.244-22.369v22.386H564.5v-22.386h-7.418l.338-1.786h16.5l-.354,1.786Zm-19.518,22.72a10.953,10.953,0,0,1-5.942-1.544,9.708,9.708,0,0,1-3.717-4.3,15.132,15.132,0,0,1-1.258-6.344,14.716,14.716,0,0,1,1.476-6.82,10.278,10.278,0,0,1,4.088-4.349,11.883,11.883,0,0,1,5.983-1.486,14.111,14.111,0,0,1,3.79.5,15.979,15.979,0,0,1,3.322,1.319l-.758,1.72a16.3,16.3,0,0,0-3.064-1.252,11.577,11.577,0,0,0-3.257-.451,9.56,9.56,0,0,0-4.935,1.261,8.578,8.578,0,0,0-3.354,3.7,13.022,13.022,0,0,0-1.21,5.843,13.887,13.887,0,0,0,.967,5.333,8.069,8.069,0,0,0,2.983,3.707,8.827,8.827,0,0,0,5.048,1.36,15.139,15.139,0,0,0,3.12-.334,15.417,15.417,0,0,0,2.943-.918v-6.294h-6.4v-1.853h8.353v9.182a17.754,17.754,0,0,1-3.991,1.494A17.458,17.458,0,0,1,546.966-652.417Zm-24.892-12.025H508.142v11.652h-1.967v-24.173h1.967v10.7h13.932v-10.7h1.951v24.173h-1.951Zm-30.866,8.831a8.73,8.73,0,0,0,4.983,1.335,11.784,11.784,0,0,0,3-.384,14.449,14.449,0,0,0,2.984-1.168l.6,1.719a16.549,16.549,0,0,1-3.128,1.219,13.657,13.657,0,0,1-3.645.451,11.114,11.114,0,0,1-5.957-1.494,9.139,9.139,0,0,1-3.6-4.216,15.819,15.819,0,0,1-1.193-6.394,16.97,16.97,0,0,1,1.209-6.619,10.051,10.051,0,0,1,3.588-4.515,9.921,9.921,0,0,1,5.765-1.636,13.389,13.389,0,0,1,6.611,1.753l-.774,1.719a16.217,16.217,0,0,0-2.846-1.21,9.908,9.908,0,0,0-2.943-.426,7.946,7.946,0,0,0-4.668,1.335,8.118,8.118,0,0,0-2.878,3.756,15.189,15.189,0,0,0-.967,5.66,14.507,14.507,0,0,0,.943,5.434A7.848,7.848,0,0,0,491.208-655.611ZM477.4-675.176v22.387h-1.983v-22.387H468l.339-1.786h16.5l-.355,1.786Zm-9.171,22.387-3.016-7.662H454.6l-2.918,7.662H449.54l9.5-24.173h1.6l9.74,24.173Zm-7.1-18.13q-.6-1.452-1.29-3.439-.386,1.135-1.209,3.356l-3.371,8.781h9.256Zm-19.628,18.13-4.242-14.457q-.724-2.437-1.152-4.006t-.814-3.289q-.919,3.656-1.967,7.2l-4.193,14.557h-1.983l-6.515-24.173h2.048l4.16,15.575q1.015,3.805,1.338,5.86.468-1.886.823-3.239t.871-3.1l4.386-15.091h2l4.6,15.425q.6,1.988.951,3.4t.548,2.613q.483-2.187,1.435-5.71l4.192-15.726H450l-6.515,24.173Zm-40.711-24.32h4.893v24.4h-4.893Zm-24.377.018h17.99v4.449h-13.1v5h9.023v4.451h-9.023v6.048h13.568v4.449H376.417Zm-16.64,24.413-5.558-16.041-5.559,16.041h-4.108l-8.52-24.418h5.28l5.4,16.788,5.551-16.8h4.048l5.552,16.8,5.413-16.788h5.143l-8.5,24.418Zm-27.1-.014-2.2-5.084H319.3l-2.227,5.084h-5.063l10.77-24.415h4.371l10.732,24.415Zm-7.8-18.234-3.738,8.745h7.5Zm-25.97,18.613c-6.662,0-10.484-3.941-10.484-10.812v-13.969h4.96v13.8c0,4.082,1.985,6.261,5.59,6.261,3.584,0,5.557-2.121,5.557-6.093v-13.983h4.96v13.781C309.492-656.327,305.635-652.313,298.908-652.313ZM276.588-662.6h-11.2v9.922h-4.961v-24.431h4.961v9.856h11.2v-9.856h4.96v24.431h-4.96Z" transform="translate(-260.427 677.313)" fill-rule="evenodd"/>
</svg>
