<?xml version="1.0" encoding="UTF-8"?>
<svg width="23px" height="24px" viewBox="0 0 23 24" version="1.1" xmlns="http://www.w3.org/2000/svg" xmlns:xlink="http://www.w3.org/1999/xlink">
    <!-- Generator: Sketch 52.3 (67297) - http://www.bohemiancoding.com/sketch -->
    <title>Slice 1</title>
    <desc>Created with Sketch.</desc>
    <g id="Page-1" stroke="none" stroke-width="1" fill="none" fill-rule="evenodd">
        <g id="hotline-01" fill="#000000">
            <path d="M12.6,13.2 C12.5,13.2 12.4,13.2 12.3,13.2 C11.9,13.1 11.6,12.7 11.6,12.3 L11.6,9.7 L10.6,9.7 C9.9,9.7 9.2,9 9.2,8.2 L9.2,1.7 C9.2,0.9 9.9,0.2 10.7,0.2 L20.6,0.2 C21.4,0.2 22.1,0.9 22.1,1.7 L22.1,8.2 C22.1,9 21.4,9.7 20.6,9.7 L15.9,9.7 L13.5,12.8 C13.2,13 13,13.2 12.6,13.2 Z M10.7,1.2 C10.4,1.2 10.2,1.4 10.2,1.7 L10.2,8.2 C10.2,8.5 10.4,8.7 10.7,8.7 L12.7,8.7 L12.7,12.2 L15.4,8.7 L20.6,8.7 C20.9,8.7 21.1,8.5 21.1,8.2 L21.1,1.7 C21.1,1.4 20.9,1.2 20.6,1.2 L10.7,1.2 Z" id="形状" fill-rule="nonzero"></path>
            <rect id="矩形" x="12.6" y="3.2" width="7" height="1"></rect>
            <rect id="矩形" x="12.3" y="5.2" width="4.9" height="1"></rect>
            <path d="M17.1,24 L16.8,24 C15.9,24 11.1,23.4 5.8,18.1 C0.6,12.8 0.1,8 0,7 L0,6.7 L0.2,6.5 C1.8,5.4 3.2,4.9 4.3,4.6 L4.6,4.5 L4.8,4.7 C6,5.9 7.1,7.6 7.7,9.2 L7.8,9.5 L6,11.4 C6.2,12 6.9,13.4 8.6,15.2 C10.4,17 11.8,17.6 12.4,17.9 L14.2,16.1 L14.5,16.2 C16,16.8 17.7,18 18.9,19.2 L19.1,19.4 L19,19.7 C18.7,20.8 18.3,22.1 17.2,23.8 L17.1,24 Z M1,7.3 C1.1,8.5 1.9,12.8 6.5,17.4 C11.1,22 15.4,22.8 16.6,23 C17.4,21.7 17.8,20.6 18.1,19.7 C17.1,18.8 15.7,17.8 14.5,17.3 L12.7,19 L12.5,19 C12.2,18.9 10.3,18.3 8,16 C5.7,13.7 5.1,11.8 5,11.5 L4.9,11.2 L6.6,9.4 C6.1,8.2 5.2,6.8 4.3,5.8 C3.4,6 2.3,6.4 1,7.3 Z" id="形状" fill-rule="nonzero"></path>
        </g>
    </g>
</svg>