<svg xmlns="http://www.w3.org/2000/svg" xmlns:xlink="http://www.w3.org/1999/xlink" width="6052" height="533" viewBox="0 0 6052 533">
  <defs>
    <clipPath id="clip-path">
      <rect id="矩形_412" data-name="矩形 412" width="6052" height="533" transform="translate(-24024 18448)" fill="#fff" stroke="#707070" stroke-width="1"/>
    </clipPath>
    <clipPath id="clip-path-2">
      <path id="路径_999" data-name="路径 999" d="M3863.56,359.36c1.25-41.71,35.88-75.83,78.41-75.83,42.24,0,77.27,33.9,78.73,75.63,1.61,44.41-36.31,81.87-78.73,81.87-42.25-.16-79.82-33.81-78.41-81.67m-41.66.38c-1.32,69.83,57.79,123,120.07,122.17,71.77-.91,119.59-57.41,119.59-122.16s-55.08-117.11-120.2-117.11c-60.31,0-118.18,49.63-119.46,117.1" fill="#231815"/>
    </clipPath>
    <clipPath id="clip-path-3">
      <path id="路径_1001" data-name="路径 1001" d="M3347.02,181.93v.01l157.31,290.57V702.42h48.41l.35-229.91L3395.42,181.93Z" fill="#231815"/>
    </clipPath>
    <clipPath id="clip-path-4">
      <path id="路径_1003" data-name="路径 1003" d="M3734.24,182.09,3576.87,472l.07,230.42h48.4V472.51l157.2-290.58Z" fill="#231815"/>
    </clipPath>
    <clipPath id="clip-path-5">
      <path id="路径_1005" data-name="路径 1005" d="M3661.63,182.09l-96.91,178.04-96.69-178.2h-48.4l-.01.01,145.14,267.75,145.27-267.76Z" fill="#231815"/>
    </clipPath>
    <clipPath id="clip-path-6">
      <path id="路径_1007" data-name="路径 1007" d="M3811.55,229.66q-53.16,53.46-53.16,127.58c0,47.31,14.9,89,47.56,123.6,32.23,34.59,77.59,57,126.19,58.88L3844.2,702.39l47.3-.13,119.65-222.14c-18.56,12.23-47.37,19.62-71.25,19.62-77.65,0-142.43-63.05-141-143,1.41-77.15,63.18-139.93,140.83-139.93s140.8,62.78,140.8,139.93c0,24.73-4.59,47.89-16,68.08L3913.92,702l46.28-.13L4090.35,460.3c2.77-4.58,7.66-15,10.89-20.68a177.7,177.7,0,0,0,20.16-82.41q0-74.46-53.45-127.58-53.14-52.8-128.37-52.8-75.55,0-128,52.8" fill="#231815"/>
    </clipPath>
  </defs>
  <g id="蒙版组_884" data-name="蒙版组 884" transform="translate(24024 -18448)" clip-path="url(#clip-path)">
    <g id="组_5485" data-name="组 5485">
      <g id="图层_2" data-name="图层 2" transform="translate(-24024 18271.17)">
        <g id="图层_1" data-name="图层 1">
          <path id="路径_998" data-name="路径 998" d="M3863.56,359.36c1.25-41.71,35.88-75.83,78.41-75.83,42.24,0,77.27,33.9,78.73,75.63,1.61,44.41-36.31,81.87-78.73,81.87-42.25-.16-79.82-33.81-78.41-81.67m-41.66.38c-1.32,69.83,57.79,123,120.07,122.17,71.77-.91,119.59-57.41,119.59-122.16s-55.08-117.11-120.2-117.11c-60.31,0-118.18,49.63-119.46,117.1" fill="#231815"/>
          <g id="组_5480" data-name="组 5480" clip-path="url(#clip-path-2)">
            <rect id="矩形_406" data-name="矩形 406" width="336.661" height="336.811" transform="matrix(0.622, -0.783, 0.783, 0.622, 3693.505, 398.898)" fill="#231815"/>
          </g>
          <path id="路径_1000" data-name="路径 1000" d="M3347.02,181.93v.01l157.31,290.57V702.42h48.41l.35-229.91L3395.42,181.93Z" fill="#231815"/>
          <g id="组_5481" data-name="组 5481" clip-path="url(#clip-path-3)">
            <rect id="矩形_407" data-name="矩形 407" width="535.61" height="485.29" transform="translate(3093.317 500.589) rotate(-51.5)" fill="#231815"/>
          </g>
          <path id="路径_1002" data-name="路径 1002" d="M3734.24,182.09,3576.87,472l.07,230.42h48.4V472.51l157.2-290.58Z" fill="#231815"/>
          <g id="组_5482" data-name="组 5482" clip-path="url(#clip-path-4)">
            <rect id="矩形_408" data-name="矩形 408" width="535.36" height="484.98" transform="translate(3323.156 500.588) rotate(-51.5)" fill="#231815"/>
          </g>
          <path id="路径_1004" data-name="路径 1004" d="M3661.63,182.09l-96.91,178.04-96.69-178.2h-48.4l-.01.01,145.14,267.75,145.27-267.76Z" fill="#231815"/>
          <g id="组_5483" data-name="组 5483" clip-path="url(#clip-path-5)">
            <rect id="矩形_409" data-name="矩形 409" width="390.34" height="393.96" transform="translate(3289.035 345.813) rotate(-51.5)" fill="#231815"/>
          </g>
          <path id="路径_1006" data-name="路径 1006" d="M3811.55,229.66q-53.16,53.46-53.16,127.58c0,47.31,14.9,89,47.56,123.6,32.23,34.59,77.59,57,126.19,58.88L3844.2,702.39l47.3-.13,119.65-222.14c-18.56,12.23-47.37,19.62-71.25,19.62-77.65,0-142.43-63.05-141-143,1.41-77.15,63.18-139.93,140.83-139.93s140.8,62.78,140.8,139.93c0,24.73-4.59,47.89-16,68.08L3913.92,702l46.28-.13L4090.35,460.3c2.77-4.58,7.66-15,10.89-20.68a177.7,177.7,0,0,0,20.16-82.41q0-74.46-53.45-127.58-53.14-52.8-128.37-52.8-75.55,0-128,52.8" fill="#231815"/>
          <g id="组_5484" data-name="组 5484" clip-path="url(#clip-path-6)">
            <rect id="矩形_410" data-name="矩形 410" width="637.26" height="611.25" transform="translate(3502.217 498.584) rotate(-51.5)" fill="#231815"/>
          </g>
          <path id="路径_1008" data-name="路径 1008" d="M4444.46,698.31q-4.17-18.91-6.05-56.38-22.71,26.88-59.22,45.41t-80.79,18.54q-35.19,0-63.2-13.62a103.821,103.821,0,0,1-44.27-40.49q-16.28-26.87-16.271-65.47,0-58.65,42.38-94t140.77-35.38a608.489,608.489,0,0,1,78.33,5.3V452q0-62.81-25.36-88.17t-71.14-25.35a245,245,0,0,0-63,8.7q-32.739,8.72-58.089,20.81l-12.11-53.36q22.32-11,61.5-20.62a341.32,341.32,0,0,1,81.92-9.64q49.19,0,83.44,16.26t53.35,55.25q19.11,39,19.12,105.2V621.49q0,25.37,3,76.82ZM4383,634.55q33.87-16.83,53.17-40.68V506.08a644.748,644.748,0,0,0-70-4.16q-67.74,0-94,21.95t-26.3,59q0,35.19,18.73,51.84t50.52,16.65Q4349.1,651.39,4383,634.55Z" fill="#231815"/>
          <path id="路径_1009" data-name="路径 1009" d="M343.66,391.65H105.49V181.92H0V701.8H105.49V490.67H343.66V701.8H449.14V181.92H343.66Z" fill="#231815"/>
          <path id="路径_1010" data-name="路径 1010" d="M937.87,479.48c0,84.53-42,129.66-118.17,129.66-76.65,0-118.86-46.4-118.86-133.25V182.23H595.36V479.48c0,146.23,81.26,230.1,222.93,230.1,143,0,225-85.44,225-234.41V181.92H937.87Z" fill="#231815"/>
          <path id="路径_1011" data-name="路径 1011" d="M2156.94,539.4,2038.89,181.85h-86.07L1834.79,539.4,1719.96,182.15H1607.69L1788.85,701.8h87.36l118.22-341.36L2112.61,701.8h88.09l180.72-519.65H2272.04Z" fill="#231815"/>
          <path id="路径_1012" data-name="路径 1012" d="M2570.52,478.07h191.87V383.38H2570.52V276.96h278.5V182.27H2466.47v519.2h392.57V606.78H2570.52Z" fill="#231815"/>
          <rect id="矩形_411" data-name="矩形 411" width="104.06" height="519.2" transform="translate(2984.84 181.88)" fill="#231815"/>
          <path id="路径_1013" data-name="路径 1013" d="M1489.74,593.28l46.68,108.21H1647L1418.78,181.92h-93l-229,519.57h107.67l47.35-108.21ZM1370.53,313.47l80,186.08H1291.05Z" fill="#231815"/>
          <path id="路径_1014" data-name="路径 1014" d="M5952.42,701.36H4838.79a99.83,99.83,0,0,1-99.71-99.72V284.79a99.82,99.82,0,0,1,99.71-99.71H5952.42a99.82,99.82,0,0,1,99.709,99.71V601.64A99.83,99.83,0,0,1,5952.42,701.36ZM4838.79,216.58a68.29,68.29,0,0,0-68.21,68.21V601.64a68.28,68.28,0,0,0,68.21,68.21H5952.42a68.28,68.28,0,0,0,68.21-68.21V284.79a68.289,68.289,0,0,0-68.21-68.21Z" fill="#231815"/>
          <path id="路径_1016" data-name="路径 1016" d="M4978.5,513.24a64.09,64.09,0,0,1-26.27-27.08Q4943,468.54,4943,444.5q0-26.07,10.58-44.28a68,68,0,0,1,28.78-27.34q18.23-9.13,40.86-9.13a107.845,107.845,0,0,1,25.48,2.93,110.218,110.218,0,0,1,22.59,8.07L5064.6,395q-21-10-40.16-10-16.14,0-28.26,6.89a46.85,46.85,0,0,0-18.85,20.24q-6.731,13.35-6.73,32.26,0,16.56,5.18,29.38a43.362,43.362,0,0,0,16.34,20.29q11.18,7.49,28.15,7.48a93.884,93.884,0,0,0,15.38-1.28,80.715,80.715,0,0,0,14.419-3.74v-31.3h-35.78V444.71h61.42v65.16a137.373,137.373,0,0,1-27.83,9.51,131,131,0,0,1-29,3.31Q4995.6,522.69,4978.5,513.24Z" fill="#231815"/>
          <path id="路径_1017" data-name="路径 1017" d="M5192.92,444.12a37.22,37.22,0,0,1,13,13.36,38.235,38.235,0,0,1,4.76,19.38,40.718,40.718,0,0,1-6.47,22.81q-6.451,9.88-18.9,15.38t-29.86,5.5h-50.42V365.88h48.29q24.56,0,36.85,9.51t12.28,26.06q0,13.79-7.85,23a41.657,41.657,0,0,1-20.56,13,50.049,50.049,0,0,1,18.88,6.67Zm-61.79-15h16.66a31.431,31.431,0,0,0,14.69-3.31,24.251,24.251,0,0,0,9.771-8.92,23.251,23.251,0,0,0,3.419-12.34q0-9.51-6.89-14.21t-19.92-4.7h-17.73Zm44.81,65q8.16-6.67,8.17-18.85,0-12.92-9-19.65t-26-6.73h-17.94V500.8h20.08q16.52-.01,24.69-6.69Z" fill="#231815"/>
          <path id="路径_1018" data-name="路径 1018" d="M5267.28,457.64h-42.72V438.2h42.72V395.68h19.66V438.2h42.72v19.44h-42.72V500h-19.66Z" fill="#231815"/>
          <path id="路径_1019" data-name="路径 1019" d="M5389.78,390.13l-29.16,19.12-10.36-18.16L5390.85,365h25.32V520.55h-26.39Z" fill="#231815"/>
          <path id="路径_1020" data-name="路径 1020" d="M5463.26,502.39l15.91-14.2q21.69-19.44,33.17-31.35t17.57-23a46.678,46.678,0,0,0,6.09-22.8q0-13.36-7.37-20t-19.55-6.62q-18.37,0-36.1,15.49l-9.19-18.59a62.819,62.819,0,0,1,20.879-12.76,75.262,75.262,0,0,1,27.4-4.86,61.509,61.509,0,0,1,25.37,5.12,42.5,42.5,0,0,1,18.37,15.44q6.88,10.31,6.891,25.15a55.328,55.328,0,0,1-6.67,26.12A117.015,117.015,0,0,1,5537.28,461q-12.07,12.76-32.26,30.39l-9.08,8,73.49-.21-2.35,21.36H5463.26Z" fill="#231815"/>
          <path id="路径_1021" data-name="路径 1021" d="M5682.32,451.92q7.16,9.88,7.15,23.88a43.689,43.689,0,0,1-25.58,40.8q-12.44,6.09-29.32,6.09-17.08,0-29.27-5.72t-18.48-15.7a41.249,41.249,0,0,1-6.3-22.48q0-27.68,29.48-39.85-23-13.24-23-36.53a35,35,0,0,1,5.82-19.7,39.212,39.212,0,0,1,16.77-13.89q10.95-5.07,25.58-5.07a62,62,0,0,1,25,4.75,39.8,39.8,0,0,1,16.93,13.19,32.27,32.27,0,0,1,6,19.23,34,34,0,0,1-6,19.76,47.317,47.317,0,0,1-16.93,14.63Q5675.17,442,5682.32,451.92Zm-25.58,44.33q7.31-7.1,7.31-18.53,0-23.4-36.32-31.09-11.1,5-16.39,13a31.418,31.418,0,0,0-5.29,17.79,26.666,26.666,0,0,0,3.259,13.14,23.34,23.34,0,0,0,9.831,9.34q6.57,3.48,16.07,3.47,14.21-.02,21.531-7.12Zm-33.6-110.71a19.05,19.05,0,0,0-8.12,6.89,17.9,17.9,0,0,0-2.88,10,22.272,22.272,0,0,0,6.569,15.71q6.57,6.93,21.42,10.57,10-5.13,14.1-11.75a25.393,25.393,0,0,0,4.05-13.35q0-9.82-6.4-15.17t-16.56-5.34a28.361,28.361,0,0,0-12.179,2.44Z" fill="#231815"/>
          <path id="路径_1022" data-name="路径 1022" d="M5737.31,513.24A64.172,64.172,0,0,1,5711,486.16q-9.18-17.62-9.18-41.66,0-26.07,10.57-44.28a68.043,68.043,0,0,1,28.79-27.34q18.211-9.13,40.86-9.13a107.712,107.712,0,0,1,25.47,2.93,110,110,0,0,1,22.59,8.07L5823.4,395q-21-10-40.16-10-16.12,0-28.25,6.89a46.788,46.788,0,0,0-18.85,20.24q-6.74,13.35-6.73,32.26,0,16.56,5.18,29.38a43.367,43.367,0,0,0,16.34,20.29q11.159,7.49,28.149,7.48a94,94,0,0,0,15.38-1.28,81.149,81.149,0,0,0,14.42-3.74v-31.3h-35.79V444.71h61.42v65.16a137.275,137.275,0,0,1-27.82,9.51,131.057,131.057,0,0,1-29,3.31Q5754.4,522.69,5737.31,513.24Z" fill="#231815"/>
          <path id="路径_1023" data-name="路径 1023" d="M5951.71,444.12a37.22,37.22,0,0,1,13,13.36,38.241,38.241,0,0,1,4.75,19.38,40.726,40.726,0,0,1-6.46,22.81q-6.459,9.88-18.91,15.38t-29.85,5.5h-50.42V365.88h48.28q24.57,0,36.86,9.51t12.28,26.06q0,13.79-7.85,23a41.7,41.7,0,0,1-20.56,13,50.049,50.049,0,0,1,18.881,6.67Zm-61.79-15h16.66a31.462,31.462,0,0,0,14.69-3.31,24.312,24.312,0,0,0,9.77-8.92,23.255,23.255,0,0,0,3.419-12.34q0-9.51-6.89-14.21t-19.92-4.7h-17.73Zm44.81,65q8.16-6.67,8.17-18.85,0-12.92-9-19.65t-26-6.73h-17.94V500.8H5910q16.55-.01,24.73-6.69Z" fill="#231815"/>
        </g>
      </g>
      <path id="路径_1024" data-name="路径 1024" d="M65.8,2.119q-17.271,0-30.251-8.424T15.364-31.681Q8.159-48.634,8.159-73.428q0-26.489,8.053-44.926t22.94-27.814q14.887-9.377,35.231-9.377a79.762,79.762,0,0,1,21.244,2.755,57.735,57.735,0,0,1,17.324,7.735l-6.675,21.933a54.058,54.058,0,0,0-14.039-7.1,49.515,49.515,0,0,0-16.052-2.649q-17.059,0-26.648,12.238T38.886-83.6A46.035,46.035,0,0,1,54.25-93.931,50.684,50.684,0,0,1,74.594-98.01a43.169,43.169,0,0,1,21.88,5.563,38.883,38.883,0,0,1,15.258,16.264q5.563,10.7,5.563,25.536,0,15.894-6.463,27.867A45.108,45.108,0,0,1,92.712-4.344Q81.057,2.119,65.8,2.119Zm-.848-22.675a18.838,18.838,0,0,0,11.02-3.391,22.476,22.476,0,0,0,7.682-10.013,40.761,40.761,0,0,0,2.808-15.947q0-25.324-20.874-25.324a31.968,31.968,0,0,0-15.046,3.6A36.534,36.534,0,0,0,38.992-62.3q0,13.668,3.55,23.1t9.377,14.039A20.486,20.486,0,0,0,64.952-20.556Z" transform="translate(-19216 18791)"/>
    </g>
  </g>
</svg>
