<svg xmlns="http://www.w3.org/2000/svg" width="25" height="25" viewBox="0 0 25 25">
  <path id="service-centre" d="M10.819,7.481A1.181,1.181,0,1,0,12,6.3,1.183,1.183,0,0,0,10.819,7.481Zm2.662,0A1.481,1.481,0,1,1,12,6,1.48,1.48,0,0,1,13.481,7.481ZM23.52,23.7a.243.243,0,0,0,.168-.055l-2.376-8.2L21.3,15.4V15.36a.251.251,0,0,0-.18-.06H15.276A43.252,43.252,0,0,1,12,19.8a43.252,43.252,0,0,1-3.276-4.5H2.88a.218.218,0,0,0-.182.07v.043l-.01.031L.31,23.65a.271.271,0,0,0,.17.05ZM12,.3A6.307,6.307,0,0,0,5.7,6.6c0,4.754,5.146,11.316,6.3,12.73,1.154-1.414,6.3-7.978,6.3-12.73A6.308,6.308,0,0,0,12,.3Zm9.6,15.06L24,23.64c0,.2-.216.36-.48.36H.48C.216,24,0,23.837,0,23.64l2.4-8.28c0-.2.216-.36.48-.36H8.537C6.943,12.432,5.4,9.259,5.4,6.6a6.6,6.6,0,0,1,13.2,0c0,2.659-1.543,5.832-3.137,8.4H21.12C21.384,15,21.6,15.163,21.6,15.36Z" transform="translate(0.5 0.5)" stroke="#000" stroke-width="1"/>
</svg>
