<?xml version="1.0" encoding="UTF-8"?>
<svg width="22px" height="24px" viewBox="0 0 22 24" version="1.1" xmlns="http://www.w3.org/2000/svg" xmlns:xlink="http://www.w3.org/1999/xlink">
    <!-- Generator: Sketch 61 (89581) - https://sketch.com -->
    <title>编组 6</title>
    <desc>Created with Sketch.</desc>
    <g id="Home" stroke="none" stroke-width="1" fill="none" fill-rule="evenodd">
        <g id="编组-6" transform="translate(-1.000000, 0.000000)">
            <g id="编组-5" transform="translate(1.000000, 0.000000)">
                <g id="编组-4">
                    <path d="M0.817800326,3.34734287 C0.626128162,3.42234502 0.5,3.60714021 0.5,3.81296426 L0.5,22.5348618 C0.5,22.5972072 0.511659979,22.6590028 0.53437861,22.7170615 C0.635004712,22.9742171 0.925044081,23.1011093 1.18219967,23.0004832 L7.18219967,20.6526571 C7.37387184,20.577655 7.5,20.3928598 7.5,20.1870357 L7.5,1.46513818 C7.5,1.40279275 7.48834002,1.34099723 7.46562139,1.2829385 C7.36499529,1.02578291 7.07495592,0.898890686 6.81780033,0.999516787 L0.817800326,3.34734287 Z" id="矩形" stroke="#000000"></path>
                    <path d="M14.8178003,3.34734287 C14.6261282,3.42234502 14.5,3.60714021 14.5,3.81296426 L14.5,22.5348618 C14.5,22.5972072 14.51166,22.6590028 14.5343786,22.7170615 C14.6350047,22.9742171 14.9250441,23.1011093 15.1821997,23.0004832 L21.1821997,20.6526571 C21.3738718,20.577655 21.5,20.3928598 21.5,20.1870357 L21.5,1.46513818 C21.5,1.40279275 21.48834,1.34099723 21.4656214,1.2829385 C21.3649953,1.02578291 21.0749559,0.898890686 20.8178003,0.999516787 L14.8178003,3.34734287 Z" id="矩形备份-5" stroke="#000000"></path>
                    <path d="M7.81780033,3.34734287 C7.62612816,3.42234502 7.5,3.60714021 7.5,3.81296426 L7.5,22.5348618 C7.5,22.5972072 7.51165998,22.6590028 7.53437861,22.7170615 C7.63500471,22.9742171 7.92504408,23.1011093 8.18219967,23.0004832 L14.1821997,20.6526571 C14.3738718,20.577655 14.5,20.3928598 14.5,20.1870357 L14.5,1.46513818 C14.5,1.40279275 14.48834,1.34099723 14.4656214,1.2829385 C14.3649953,1.02578291 14.0749559,0.898890686 13.8178003,0.999516787 L7.81780033,3.34734287 Z" id="矩形备份-4" stroke="#000000" transform="translate(11.000000, 12.000000) scale(-1, 1) translate(-11.000000, -12.000000) "></path>
                    <path d="M5.03119722,8.12218231 L2.4564955,9.09539776 C2.28225237,9.16126019 2.19439245,9.3559042 2.26025488,9.53014733 C2.2746566,9.56824797 2.29584058,9.60342489 2.32278096,9.6339746 L2.41700326,9.7408203 C2.55454912,9.89679381 2.77427747,9.95134661 2.96880278,9.87781769 L5.5435045,8.90460224 C5.71774763,8.83873981 5.80560755,8.6440958 5.73974512,8.46985267 C5.7253434,8.43175203 5.70415942,8.39657511 5.67721904,8.3660254 L5.58299674,8.2591797 C5.44545088,8.10320619 5.22572253,8.04865339 5.03119722,8.12218231 Z" id="矩形备份-3" fill="#000000"></path>
                    <path d="M5.03119722,11.1221823 L2.4564955,12.0953978 C2.28225237,12.1612602 2.19439245,12.3559042 2.26025488,12.5301473 C2.2746566,12.568248 2.29584058,12.6034249 2.32278096,12.6339746 L2.41700326,12.7408203 C2.55454912,12.8967938 2.77427747,12.9513466 2.96880278,12.8778177 L5.5435045,11.9046022 C5.71774763,11.8387398 5.80560755,11.6440958 5.73974512,11.4698527 C5.7253434,11.431752 5.70415942,11.3965751 5.67721904,11.3660254 L5.58299674,11.2591797 C5.44545088,11.1032062 5.22572253,11.0486534 5.03119722,11.1221823 Z" id="矩形备份-6" fill="#000000"></path>
                </g>
            </g>
            <rect id="矩形" x="0" y="0" width="24" height="24"></rect>
        </g>
    </g>
</svg>