<?xml version="1.0" encoding="UTF-8"?>
<svg width="357px" height="25px" viewBox="0 0 357 25" version="1.1" xmlns="http://www.w3.org/2000/svg" xmlns:xlink="http://www.w3.org/1999/xlink">
    <!-- Generator: Sketch 52.3 (67297) - http://www.bohemiancoding.com/sketch -->
    <title>Slice 1</title>
    <desc>Created with Sketch.</desc>
    <defs>
        <polygon id="path-1" points="0.187623529 0.213035294 19.1836235 0.213035294 19.1836235 22.5882353 0.187623529 22.5882353"></polygon>
        <polygon id="path-3" points="0 23.9515412 356.676353 23.9515412 356.676353 -0.000105882353 0 -0.000105882353"></polygon>
    </defs>
    <g id="Page-1" stroke="none" stroke-width="1" fill="none" fill-rule="evenodd">
        <g id="分组">
            <path d="M148.527882,8.96844706 C148.284,8.37268235 148.023176,7.66785882 147.745412,6.85503529 C147.467647,6.04221176 147.241059,5.34268235 147.065294,4.7568 C147.104471,5.32256471 147.138353,6.12056471 147.167647,7.15044706 C147.196941,8.18068235 147.211765,9.16044706 147.211765,10.0897412 L147.211765,23.5424471 L144.682235,23.5424471 L144.682235,1.60574118 L148.308353,1.60574118 L153.879529,15.3616235 C154.717765,17.4220941 155.293059,19.0682118 155.605059,20.3003294 C156.034235,18.9369176 156.643059,17.3059765 157.432588,15.4071529 L163.121294,1.60574118 L166.659882,1.60574118 L166.659882,23.5424471 L163.940118,23.5424471 L163.940118,10.0897412 C163.940118,8.84703529 164.007882,7.06962353 164.144471,4.7568 C163.627765,6.43327059 163.067294,7.98374118 162.463059,9.40785882 L156.584824,23.5728 L154.435059,23.5728 L148.527882,8.96844706 Z" id="Fill-1" fill="#000004"></path>
            <path d="M178.394859,20.9898353 C179.267329,20.5405412 179.952035,19.9973647 180.449329,19.3613647 L180.449329,15.8464235 C179.474506,15.7352471 178.572741,15.6798353 177.744035,15.6798353 C175.999094,15.6798353 174.7878,15.9727765 174.110506,16.5583059 C173.432506,17.1441882 173.094035,17.9323059 173.094035,18.9219529 C173.094035,19.8611294 173.335447,20.5532471 173.817918,20.9972471 C174.300388,21.4416 174.951212,21.6639529 175.770035,21.6639529 C176.647447,21.6639529 177.522035,21.4391294 178.394859,20.9898353 Z M180.770859,23.5423059 C180.663918,23.0376 180.585565,22.2851294 180.536859,21.2852471 C179.952035,22.0024235 179.189329,22.6084235 178.248741,23.1028941 C177.3078,23.5980706 176.267329,23.8454824 175.126624,23.8454824 C174.220271,23.8454824 173.406035,23.6637176 172.684624,23.3001882 C171.963212,22.9366588 171.392859,22.3963059 170.973918,21.6791294 C170.554624,20.9619529 170.344976,20.0880706 170.344976,19.0581882 C170.344976,17.4928941 170.890976,16.2378353 171.982976,15.2933647 C173.074624,14.3492471 174.887682,13.8770118 177.422506,13.8770118 C178.387447,13.8770118 179.396506,13.9476 180.449329,14.0887765 L180.449329,13.6800706 C180.449329,12.0036 180.122859,10.8268941 179.469565,10.1499529 C178.816271,9.47371765 177.900035,9.13489412 176.720506,9.13489412 C175.940506,9.13489412 175.129094,9.25136471 174.285918,9.48324706 C173.442741,9.71618824 172.694506,9.9936 172.041212,10.3168941 L171.573565,8.18054118 C172.148506,7.88795294 172.940859,7.61265882 173.949565,7.35501176 C174.958624,7.09771765 176.013565,6.96854118 177.115447,6.96854118 C178.382506,6.96854118 179.457212,7.18595294 180.339918,7.62007059 C181.221918,8.05454118 181.909094,8.79183529 182.401447,9.83195294 C182.893447,10.8724235 183.1398,12.2764235 183.1398,14.0436 L183.1398,20.4671294 C183.1398,21.1440706 183.178976,22.1690118 183.256624,23.5423059 L180.770859,23.5423059 Z" id="Fill-3" fill="#000004"></path>
            <path d="M188.880035,22.6639059 C188.134271,21.8761412 187.761212,20.5684941 187.761212,18.7402588 L187.761212,9.45296471 L185.684859,9.45296471 L186.050153,7.55943529 L187.849094,7.28696471 L188.0538,3.51437647 L190.422741,3.12084706 L190.422741,7.28696471 L195.102035,7.28696471 L194.736388,9.45296471 L190.422741,9.45296471 L190.422741,18.4670824 C190.422741,19.5481412 190.617565,20.3359059 191.007565,20.8307294 C191.397212,21.3255529 192.006388,21.5729647 192.835447,21.5729647 C193.449212,21.5729647 194.199918,21.4166118 195.087212,21.1032 L195.555212,23.0574353 C195.106624,23.2797882 194.590271,23.4664941 194.005094,23.6182588 C193.420271,23.7696706 192.786388,23.8455529 192.104153,23.8455529 C190.700506,23.8455529 189.625447,23.4513176 188.880035,22.6639059" id="Fill-5" fill="#000004"></path>
            <path d="M207.005153,13.5435882 C206.907741,12.0492353 206.539624,10.9254706 205.901153,10.1726471 C205.262682,9.42052941 204.407153,9.04429412 203.335271,9.04429412 C202.272212,9.04429412 201.392682,9.42547059 200.695624,10.1878235 C199.998212,10.9505294 199.547506,12.069 199.343153,13.5435882 L207.005153,13.5435882 Z M209.710447,15.513 L199.225976,15.513 C199.245388,17.5431176 199.691153,19.0657059 200.563976,20.0804118 C201.436447,21.0954706 202.696447,21.6033529 204.343976,21.6033529 C205.854918,21.6033529 207.331624,21.255 208.7748,20.5579412 L209.403388,22.5577059 C208.613859,22.9720588 207.777388,23.2900588 206.895388,23.5120588 C206.013035,23.7340588 204.987388,23.8452353 203.817741,23.8452353 C202.247859,23.8452353 200.9148,23.5173529 199.818212,22.8605294 C198.721271,22.2044118 197.892918,21.2571176 197.332447,20.0204118 C196.771624,18.7833529 196.491741,17.2957059 196.491741,15.5585294 C196.491741,13.7708824 196.783976,12.2306471 197.3688,10.9378235 C197.953624,9.645 198.770329,8.66029412 199.818212,7.98370588 C200.865741,7.30711765 202.072094,6.96864706 203.437271,6.96864706 C204.840918,6.96864706 206.013035,7.317 206.953976,8.01405882 C207.894918,8.71111765 208.589153,9.62735294 209.037741,10.7634706 C209.485976,11.8999412 209.710447,13.1345294 209.710447,14.4675882 L209.710447,15.513 Z" id="Fill-7" fill="#000004"></path>
            <path d="M222.973659,20.2398353 C223.7826,19.5427765 224.187071,18.5481882 224.187071,17.2553647 C224.187071,15.8718353 223.733894,14.8161882 222.827188,14.0887765 C221.920835,13.3620706 220.619188,12.9981882 218.922953,12.9981882 L215.998482,12.9981882 L215.998482,21.2852471 L219.288953,21.2852471 C220.936129,21.2852471 222.164365,20.9368941 222.973659,20.2398353 Z M215.998482,10.7711294 L218.659659,10.7711294 C219.517659,10.7711294 220.273306,10.5946588 220.926247,10.2410118 C221.579541,9.88771765 222.081776,9.41018824 222.4326,8.80912941 C222.783424,8.20842353 222.958835,7.54948235 222.958835,6.83230588 C222.958835,5.84265882 222.605541,5.10007059 221.8986,4.60524706 C221.191659,4.11077647 220.166012,3.86301176 218.8206,3.86301176 L215.998482,3.86301176 L215.998482,10.7711294 Z M224.538247,12.6576 C225.278718,13.1471294 225.861776,13.7912471 226.285659,14.5888941 C226.709541,15.3868941 226.921659,16.3108941 226.921659,17.3616 C226.921659,18.5732471 226.636482,19.6465412 226.066482,20.5807765 C225.495776,21.5150118 224.662482,22.2424235 223.565894,22.7619529 C222.468953,23.2825412 221.150365,23.5423059 219.610482,23.5423059 L213.293188,23.5423059 L213.293188,1.6056 L219.157306,1.6056 C221.311306,1.6056 222.941894,2.04748235 224.048365,2.93124706 C225.154835,3.81536471 225.707894,5.03971765 225.707894,6.60501176 C225.707894,7.86748235 225.369071,8.93583529 224.691776,9.80901176 C224.013776,10.6828941 223.109894,11.3065412 221.979424,11.6803059 C222.944365,11.8419529 223.797071,12.1677176 224.538247,12.6576 Z" id="Fill-9" fill="#000004"></path>
            <path d="M239.921753,20.0278588 C240.652694,18.9672706 241.018341,17.4976235 241.018341,15.6192706 C241.018341,13.6597412 240.630812,12.0993882 239.855753,10.9378588 C239.080694,9.77668235 237.942812,9.19574118 236.441753,9.19574118 C234.930106,9.19574118 233.802106,9.75868235 233.056341,10.8849176 C232.310929,12.0111529 231.937871,13.5185647 231.937871,15.4071529 C231.937871,16.6999765 232.118224,17.8110353 232.478929,18.7403294 C232.839635,19.6692706 233.370459,20.3815059 234.072812,20.8759765 C234.774459,21.3711529 235.622576,21.6185647 236.617165,21.6185647 C238.088929,21.6185647 239.190812,21.0880941 239.921753,20.0278588 M232.661753,22.8683294 C231.564812,22.2168 230.704694,21.2702118 230.080694,20.0278588 C229.456694,18.7851529 229.145047,17.3006824 229.145047,15.5737412 C229.145047,13.8365647 229.456694,12.3189176 230.080694,11.0211529 C230.704694,9.72374118 231.574694,8.72385882 232.691047,8.02150588 C233.807047,7.31950588 235.091047,6.96868235 236.544106,6.96868235 C237.967165,6.96868235 239.229282,7.31209412 240.331165,7.99891765 C241.432694,8.68574118 242.290694,9.66762353 242.904812,10.9456235 C243.518576,12.2232706 243.825988,13.7155059 243.825988,15.4223294 C243.825988,17.1693882 243.506576,18.6771529 242.868106,19.9445647 C242.229635,21.2119765 241.349753,22.1790353 240.228812,22.8453882 C239.107518,23.5120941 237.835518,23.8452706 236.412459,23.8452706 C235.008459,23.8452706 233.758341,23.5198588 232.661753,22.8683294" id="Fill-11" fill="#000004"></path>
            <path d="M256.577541,20.0278588 C257.308482,18.9672706 257.674129,17.4976235 257.674129,15.6192706 C257.674129,13.6597412 257.2866,12.0993882 256.511541,10.9378588 C255.736482,9.77668235 254.5986,9.19574118 253.097541,9.19574118 C251.585894,9.19574118 250.457894,9.75868235 249.712129,10.8849176 C248.966718,12.0111529 248.593659,13.5185647 248.593659,15.4071529 C248.593659,16.6999765 248.774012,17.8110353 249.134718,18.7403294 C249.495424,19.6692706 250.026247,20.3815059 250.7286,20.8759765 C251.430247,21.3711529 252.278365,21.6185647 253.272953,21.6185647 C254.744718,21.6185647 255.8466,21.0880941 256.577541,20.0278588 M249.317541,22.8683294 C248.2206,22.2168 247.360482,21.2702118 246.736482,20.0278588 C246.112482,18.7851529 245.800835,17.3006824 245.800835,15.5737412 C245.800835,13.8365647 246.112482,12.3189176 246.736482,11.0211529 C247.360482,9.72374118 248.230482,8.72385882 249.346835,8.02150588 C250.462835,7.31950588 251.746835,6.96868235 253.199894,6.96868235 C254.622953,6.96868235 255.885071,7.31209412 256.986953,7.99891765 C258.088482,8.68574118 258.946482,9.66762353 259.5606,10.9456235 C260.174365,12.2232706 260.481776,13.7155059 260.481776,15.4223294 C260.481776,17.1693882 260.162365,18.6771529 259.523894,19.9445647 C258.885424,21.2119765 258.005541,22.1790353 256.8846,22.8453882 C255.763306,23.5120941 254.491306,23.8452706 253.068247,23.8452706 C251.664247,23.8452706 250.414129,23.5198588 249.317541,22.8683294" id="Fill-13" fill="#000004"></path>
            <polygon id="Fill-15" fill="#000004" points="263.626024 0.302788235 266.316494 -3.52941176e-05 266.316494 14.9374941 273.160024 7.28678824 276.230612 7.28678824 270.059788 14.0586706 276.830259 23.5425529 273.6132 23.5425529 268.246729 15.8311412 266.316494 17.5432588 266.316494 23.5425529 263.626024 23.5425529"></polygon>
            <polygon id="Fill-17" fill="#000004" points="294.599718 12.4509882 288.019482 1.70957647 291.192776 1.70957647 296.120541 10.2084 301.253365 1.70957647 304.309129 1.70957647 297.772659 12.3144 304.850188 23.6466353 301.618659 23.6466353 296.179129 14.4355765 290.534541 23.6466353 287.478424 23.6466353"></polygon>
            <polygon id="Fill-19" fill="#000004" points="14.5729412 10.4698235 4.47352941 10.4698235 4.47352941 1.57641176 0 1.57641176 0 23.6218235 4.47352941 23.6218235 4.47352941 14.6687647 14.5729412 14.6687647 14.5729412 23.6218235 19.0457647 23.6218235 19.0457647 1.57641176 14.5729412 1.57641176"></polygon>
            <g transform="translate(25.058824, 1.363306)">
                <mask id="mask-2" fill="white">
                    <use xlink:href="#path-1"></use>
                </mask>
                <g id="Clip-22"></g>
                <path d="M14.7111529,12.8310353 C14.7111529,16.4155059 12.9316235,18.3295059 9.70044706,18.3295059 C6.45021176,18.3295059 4.65974118,16.3615059 4.65974118,12.6785647 L4.65974118,0.226094118 L0.187623529,0.226094118 L0.187623529,12.8310353 C0.187623529,19.0318588 3.63268235,22.5884471 9.64044706,22.5884471 C15.7053882,22.5884471 19.1836235,18.9655059 19.1836235,12.6482118 L19.1836235,0.213035294 L14.7111529,0.213035294 L14.7111529,12.8310353 Z" id="Fill-21" fill="#000004" mask="url(#mask-2)"></path>
            </g>
            <polygon id="Fill-23" fill="#000004" points="91.4644588 16.7352353 86.4586941 1.57323529 82.8085765 1.57323529 77.8038706 16.7352353 72.9343412 1.58594118 68.1735176 1.58594118 75.8556353 23.6218235 79.5601059 23.6218235 84.5732824 9.14629412 89.5846941 23.6218235 93.3198706 23.6218235 100.983635 1.58594118 96.3452824 1.58594118"></polygon>
            <polygon id="Fill-25" fill="#000004" points="109.002282 14.1343765 117.138282 14.1343765 117.138282 10.1189647 109.002282 10.1189647 109.002282 5.60696471 120.811694 5.60696471 120.811694 1.5912 104.589812 1.5912 104.589812 23.6076706 121.236635 23.6076706 121.236635 19.5926118 109.002282 19.5926118"></polygon>
            <mask id="mask-4" fill="white">
                <use xlink:href="#path-3"></use>
            </mask>
            <g id="Clip-28"></g>
            <polygon id="Fill-27" fill="#000004" mask="url(#mask-4)" points="126.571059 23.5915412 130.983529 23.5915412 130.983529 1.57507059 126.571059 1.57507059"></polygon>
            <path d="M58.1167059,7.15482353 L61.3055294,14.5334118 L61.2949412,14.5334118 L61.5088235,15.0451765 L54.7464706,15.0451765 L54.9607059,14.5334118 L54.954,14.5334118 L58.1167059,7.15482353 Z M63.1718824,19.02 L65.1515294,23.6085882 L69.8392941,23.6085882 L60.2188235,1.70364706 L60.1323529,1.57623529 L56.2217647,1.57623529 L46.5095294,23.6085882 L51.0751765,23.6085882 L52.9482353,19.3418824 L52.9478824,19.3418824 L53.0830588,19.02 L63.1718824,19.02 Z" id="Fill-29" fill="#000004" mask="url(#mask-4)"></path>
            <path d="M324.752047,11.6441294 C325.672871,10.8217765 326.133459,9.67683529 326.133459,8.20895294 C326.133459,6.76083529 325.683106,5.71154118 324.781341,5.06142353 C323.879929,4.41130588 322.572282,4.08624706 320.8584,4.08624706 L318.316871,4.08624706 L318.316871,12.6267176 C319.242635,12.7947176 320.050518,12.8780118 320.740165,12.8780118 C322.493576,12.8780118 323.830871,12.4668353 324.752047,11.6441294 Z M315.538871,1.85495294 L320.917694,1.85495294 C323.518165,1.85495294 325.503106,2.38930588 326.872518,3.45836471 C328.241576,4.52707059 328.926282,6.07612941 328.926282,8.10554118 C328.926282,9.51412941 328.603341,10.7480118 327.958518,11.8068353 C327.312988,12.8660118 326.409106,13.6834235 325.246871,14.2597765 C324.084282,14.8361294 322.754753,15.1241294 321.257576,15.1241294 C320.282047,15.1241294 319.301929,15.0111882 318.316871,14.7842471 L318.316871,23.2513059 L315.538871,23.2513059 L315.538871,1.85495294 Z" id="Fill-30" fill="#000004" mask="url(#mask-4)"></path>
            <path d="M332.265847,11.3856353 C332.265847,10.4990471 332.226318,9.16951765 332.147612,7.39598824 L334.659494,7.39598824 C334.718435,7.83928235 334.772788,8.37398824 334.821847,8.9994 C334.871259,9.62516471 334.905494,10.1199882 334.925259,10.4842235 C335.359024,9.78504706 335.782553,9.19387059 336.1962,8.7114 C336.6102,8.22892941 337.097259,7.83681176 337.659141,7.53645882 C338.220671,7.23610588 338.860906,7.08575294 339.5802,7.08575294 C340.111729,7.08575294 340.594553,7.14998824 341.027965,7.27775294 L340.643965,9.68657647 C340.269494,9.58810588 339.875612,9.53869412 339.461965,9.53869412 C338.584906,9.53869412 337.811612,9.78751765 337.141729,10.2848118 C336.471847,10.7824588 335.752906,11.5875176 334.984553,12.7010471 L334.984553,23.2511647 L332.265847,23.2511647 L332.265847,11.3856353 Z" id="Fill-31" fill="#000004" mask="url(#mask-4)"></path>
            <path d="M352.731247,19.8231176 C353.469953,18.7886471 353.839482,17.3553529 353.839482,15.5228824 C353.839482,13.6120588 353.447718,12.0901765 352.664894,10.9572353 C351.881718,9.82464706 350.731129,9.25782353 349.214188,9.25782353 C347.687365,9.25782353 346.547365,9.807 345.793835,10.9053529 C345.039953,12.0040588 344.663365,13.4744118 344.663365,15.3160588 C344.663365,16.5774706 344.845482,17.661 345.209718,18.567 C345.574306,19.4737059 346.111129,20.1682941 346.820541,20.6507647 C347.529953,21.1332353 348.386894,21.3746471 349.391718,21.3746471 C350.879012,21.3746471 351.992188,20.8575882 352.731247,19.8231176 M345.394659,22.5937059 C344.286424,21.9584118 343.416776,21.0347647 342.786424,19.8231176 C342.156071,18.6111176 341.841247,17.1633529 341.841247,15.4787647 C341.841247,13.7846471 342.156071,12.3044118 342.786424,11.0384118 C343.416776,9.77276471 344.296306,8.79758824 345.424306,8.11252941 C346.551953,7.42817647 347.849718,7.08582353 349.3176,7.08582353 C350.755835,7.08582353 352.031718,7.42076471 353.144894,8.09064706 C354.258071,8.76052941 355.124894,9.71841176 355.745365,10.9642941 C356.366188,12.2108824 356.676424,13.6664118 356.676424,15.3308824 C356.676424,17.0355882 356.353835,18.5059412 355.708659,19.7419412 C355.063129,20.9779412 354.174071,21.9213529 353.041482,22.5714706 C351.908541,23.2215882 350.622776,23.5466471 349.184894,23.5466471 C347.766424,23.5466471 346.503247,23.229 345.394659,22.5937059" id="Fill-32" fill="#000004" mask="url(#mask-4)"></path>
        </g>
    </g>
</svg>