<svg id="图层_1" data-name="图层 1" xmlns="http://www.w3.org/2000/svg" width="309.4" height="24" viewBox="0 0 309.4 24">
  <title>HUAWEI matepad pro</title>
  <g>
    <path d="M148.4,9c-.2-.6-.5-1.3-.8-2.1s-.5-1.5-.7-2.1c0,.6.1,1.4.1,2.4V23.6h-2.5V1.6h3.6l5.6,13.8a49.5,49.5,0,0,1,1.7,4.9,44.43,44.43,0,0,1,1.8-4.9l5.7-13.8h3.5v22h-2.7V10.1c0-1.2.1-3,.2-5.3-.5,1.7-1.1,3.2-1.7,4.7l-5.9,14.2h-2.2Z" transform="translate(-0.1)"/>
    <path d="M180.9,23.6a12.14,12.14,0,0,1-.2-2.3,7.1,7.1,0,0,1-2.3,1.8,6.43,6.43,0,0,1-3.1.7,6,6,0,0,1-2.4-.5,4.36,4.36,0,0,1-1.7-1.6,5.26,5.26,0,0,1-.6-2.6,4.78,4.78,0,0,1,1.6-3.8c1.1-.9,2.9-1.4,5.4-1.4,1,0,2,.1,3,.2v-.4c0-1.7-.3-2.9-1-3.5a3.71,3.71,0,0,0-2.8-1,9.86,9.86,0,0,0-2.4.3,11.26,11.26,0,0,0-2.2.8l-.5-2.1a9.58,9.58,0,0,1,2.4-.8,11.24,11.24,0,0,1,3.2-.4,6.31,6.31,0,0,1,3.2.7,4.51,4.51,0,0,1,2.1,2.2,9.64,9.64,0,0,1,.7,4.2v6.4c0,.7,0,1.7.1,3.1ZM178.5,21a5.84,5.84,0,0,0,2.1-1.6V15.9c-1-.1-1.9-.2-2.7-.2-1.7,0-3,.3-3.6.9a3,3,0,0,0-1,2.4,2.82,2.82,0,0,0,.7,2.1,3,3,0,0,0,2,.7,6.09,6.09,0,0,0,2.5-.8" transform="translate(-0.1)"/>
    <path d="M189.2,22.7a5.86,5.86,0,0,1-1.1-3.9V9.5H186l.4-1.9,1.8-.3.2-3.8,2.4-.4V7.3h4.7l-.4,2.2h-4.3v9a3.84,3.84,0,0,0,.6,2.4,2.14,2.14,0,0,0,1.8.7,8,8,0,0,0,2.3-.5l.5,2a13.78,13.78,0,0,1-1.6.6,5.84,5.84,0,0,1-1.9.2,4.16,4.16,0,0,1-3.3-1.2" transform="translate(-0.1)"/>
    <path d="M210.2,15.5H199.7a7.41,7.41,0,0,0,1.3,4.6,4.76,4.76,0,0,0,3.8,1.5,9.76,9.76,0,0,0,4.4-1l.6,2a18.61,18.61,0,0,1-2.5,1,14.16,14.16,0,0,1-3.1.3,7.21,7.21,0,0,1-4-1,6.78,6.78,0,0,1-2.5-2.8,10.08,10.08,0,0,1-.8-4.5,10.78,10.78,0,0,1,.9-4.6,6.76,6.76,0,0,1,2.5-3,6.3,6.3,0,0,1,3.6-1,5.58,5.58,0,0,1,3.5,1,6.69,6.69,0,0,1,2.1,2.8,11.06,11.06,0,0,1,.7,3.7Zm-2.7-1.9a6.22,6.22,0,0,0-1.1-3.4,3,3,0,0,0-2.6-1.1,3.47,3.47,0,0,0-2.6,1.1,7.13,7.13,0,0,0-1.4,3.4Z" transform="translate(-0.1)"/>
    <path d="M214,1.6h5.3c2.6,0,4.5.5,5.9,1.6a5.67,5.67,0,0,1,2,4.8,7,7,0,0,1-1,3.8,6,6,0,0,1-2.7,2.5,8.72,8.72,0,0,1-4,.9,14.28,14.28,0,0,1-2.9-.3v8.7H214Zm9.1,10.1a4.51,4.51,0,0,0,1.4-3.5A3.58,3.58,0,0,0,223.2,5a6.25,6.25,0,0,0-3.9-1h-2.5v8.8a11.21,11.21,0,0,0,2.4.3,7,7,0,0,0,3.9-1.4" transform="translate(-0.1)"/>
    <path d="M239.3,23.6a12.14,12.14,0,0,1-.2-2.3,7.1,7.1,0,0,1-2.3,1.8,6.43,6.43,0,0,1-3.1.7,6,6,0,0,1-2.4-.5,4.36,4.36,0,0,1-1.7-1.6,5.26,5.26,0,0,1-.6-2.6,4.78,4.78,0,0,1,1.6-3.8c1.1-.9,2.9-1.4,5.4-1.4,1,0,2,.1,3,.2v-.4c0-1.7-.3-2.9-1-3.5a3.71,3.71,0,0,0-2.8-1,9.86,9.86,0,0,0-2.4.3,11.26,11.26,0,0,0-2.2.8L230,8.2a9.58,9.58,0,0,1,2.4-.8,11.24,11.24,0,0,1,3.2-.4,6.31,6.31,0,0,1,3.2.7,4.51,4.51,0,0,1,2.1,2.2,9.64,9.64,0,0,1,.7,4.2v6.4c0,.7,0,1.7.1,3.1ZM236.9,21a5.84,5.84,0,0,0,2.1-1.6V15.9c-1-.1-1.9-.2-2.7-.2-1.7,0-3,.3-3.6.9a3,3,0,0,0-1,2.4,2.82,2.82,0,0,0,.7,2.1,3,3,0,0,0,2,.7,7.18,7.18,0,0,0,2.5-.8" transform="translate(-0.1)"/>
    <path d="M256,23.6c-.1-.6-.2-1.3-.3-2a6.84,6.84,0,0,1-2.1,1.7,6.39,6.39,0,0,1-5.8-.2,5.77,5.77,0,0,1-2.2-2.6,11.69,11.69,0,0,1-.8-4.5,12.09,12.09,0,0,1,.9-4.8,6.52,6.52,0,0,1,2.5-3.1A7.13,7.13,0,0,1,252.1,7a13.66,13.66,0,0,1,1.9.2c.6.1,1.2.3,1.7.4V.3l2.7-.3V19.5c0,1.3,0,2.7.1,4.1Zm-2.1-2.7a4.53,4.53,0,0,0,1.8-1.5V9.7a8.47,8.47,0,0,0-1.7-.4,10,10,0,0,0-1.6-.2,4.15,4.15,0,0,0-2.5.8,5,5,0,0,0-1.6,2.3,9.88,9.88,0,0,0-.6,3.7c0,2,.3,3.4,1,4.3a3.32,3.32,0,0,0,2.7,1.4,4.51,4.51,0,0,0,2.5-.7" transform="translate(-0.1)"/>
    <path d="M269.6,1.6h5.3c2.6,0,4.5.5,5.9,1.6a5.67,5.67,0,0,1,2,4.8,7,7,0,0,1-1,3.8,6,6,0,0,1-2.7,2.5,8.72,8.72,0,0,1-4,.9,14.28,14.28,0,0,1-2.9-.3v8.7h-2.8V1.6Zm9.1,10.1a4.51,4.51,0,0,0,1.4-3.5A3.58,3.58,0,0,0,278.8,5a6.25,6.25,0,0,0-3.9-1h-2.5v8.8a11.21,11.21,0,0,0,2.4.3,7,7,0,0,0,3.9-1.4" transform="translate(-0.1)"/>
    <path d="M285.8,11.4c0-.9,0-2.3-.1-4.1h2.5c.1.5.1,1,.2,1.6s.1,1.2.1,1.5a8.32,8.32,0,0,1,1.3-1.8,5.26,5.26,0,0,1,1.4-1.2,4.14,4.14,0,0,1,1.9-.5,5.9,5.9,0,0,1,1.4.2l-.4,2.5a5,5,0,0,0-1.2-.2,3.78,3.78,0,0,0-2.3.8,7.86,7.86,0,0,0-2.1,2.5V23.5h-2.7V11.4Z" transform="translate(-0.1)"/>
    <path d="M298.3,22.9a7,7,0,0,1-2.6-2.8,10,10,0,0,1-.9-4.5,11.11,11.11,0,0,1,.9-4.6,7,7,0,0,1,2.6-3,7.13,7.13,0,0,1,3.9-1.1,7,7,0,0,1,3.8,1,7.29,7.29,0,0,1,2.6,2.9,10.63,10.63,0,0,1,.9,4.5,9.07,9.07,0,0,1-1,4.5,6.69,6.69,0,0,1-2.6,2.9,7,7,0,0,1-3.8,1,6.11,6.11,0,0,1-3.8-.8m7.3-2.8a7.94,7.94,0,0,0,1.1-4.4,8.18,8.18,0,0,0-1.2-4.7,3.73,3.73,0,0,0-3.4-1.7,4,4,0,0,0-3.4,1.7,8.31,8.31,0,0,0-1.1,4.5,10.42,10.42,0,0,0,.5,3.3,4.91,4.91,0,0,0,1.6,2.1,4.3,4.3,0,0,0,2.5.7,3.82,3.82,0,0,0,3.4-1.5" transform="translate(-0.1)"/>
    <polygon points="14.6 10.5 4.5 10.5 4.5 1.6 0 1.6 0 23.6 4.5 23.6 4.5 14.7 14.6 14.7 14.6 23.6 19.1 23.6 19.1 1.6 14.6 1.6 14.6 10.5"/>
    <path d="M39.9,14.2c0,3.6-1.8,5.5-5,5.5s-5-2-5-5.7V1.6H25.4V14.2c0,6.2,3.5,9.8,9.5,9.8s9.6-3.6,9.6-10V1.6H40V14.2Z" transform="translate(-0.1)"/>
    <polygon points="91.6 16.7 86.6 1.6 82.9 1.6 77.9 16.7 73 1.6 68.3 1.6 76 23.6 79.7 23.6 84.7 9.1 89.7 23.6 93.5 23.6 101.1 1.6 96.5 1.6 91.6 16.7"/>
    <polygon points="109.2 14.1 117.3 14.1 117.3 10.1 109.2 10.1 109.2 5.6 121 5.6 121 1.6 104.7 1.6 104.7 23.6 121.4 23.6 121.4 19.6 109.2 19.6 109.2 14.1"/>
    <rect x="126.8" y="1.6" width="4.4" height="22"/>
    <path d="M63.4,19l2,4.6H70L60.4,1.7l-.1-.1H56.4L46.7,23.7h4.6l1.9-4.3h0l.1-.3H63.4ZM58.3,7.2l3.2,7.4h0l.2.5H54.9l.2-.5h0Z" transform="translate(-0.1)"/>
  </g>
</svg>
