<svg xmlns="http://www.w3.org/2000/svg" width="390" height="26" viewBox="0 0 390 26">
  <defs>
    <style>
      .cls-1 {
        fill: #fff;
      }
    </style>
  </defs>
  <g id="组_48" data-name="组 48" transform="translate(-1411 -893)">
    <rect id="矩形_14" data-name="矩形 14" width="47" height="19" rx="6" transform="translate(1754 900)"/>
    <g id="组_47" data-name="组 47" transform="translate(718.106 292.536)">
      <g id="组_45" data-name="组 45">
        <g id="组_43" data-name="组 43">
          <path id="路径_187" data-name="路径 187" d="M708.486,611.666H697.68v-9.516h-4.786v23.587h4.786v-9.579h10.806v9.579h4.785V602.151h-4.785Z"/>
          <path id="路径_188" data-name="路径 188" d="M735.444,615.651c0,3.835-1.9,5.883-5.36,5.883-3.478,0-5.393-2.106-5.393-6.046V602.164h-4.786v13.487c0,6.635,3.686,10.439,10.115,10.439,6.488,0,10.21-3.876,10.21-10.635v-13.3h-4.786Z"/>
          <path id="路径_189" data-name="路径 189" d="M790.754,618.369,785.4,602.147h-3.905l-5.355,16.222-5.21-16.209h-5.094l8.22,23.576h3.964l5.363-15.488,5.362,15.488h4l8.2-23.576h-4.963Z"/>
          <path id="路径_190" data-name="路径 190" d="M809.518,615.587h8.705v-4.3h-8.705v-4.828h12.635v-4.3H804.8v23.556h17.811v-4.3h-13.09Z"/>
          <rect id="矩形_13" data-name="矩形 13" width="4.721" height="23.556" transform="translate(828.316 602.149)"/>
          <path id="路径_191" data-name="路径 191" d="M760.483,620.814l2.118,4.91h5.016l-10.293-23.437-.093-.136h-4.184l-10.391,23.573h4.884l2.005-4.566h0l.144-.344Zm-5.409-12.7,3.412,7.895h-.011l.229.548h-7.236l.23-.548h-.007Z"/>
        </g>
        <g id="组_44" data-name="组 44">
          <path id="路径_192" data-name="路径 192" d="M1015.189,625.119a10.642,10.642,0,0,1-3.3-1.553l.911-2.479a10.625,10.625,0,0,0,2.879,1.593,9.305,9.305,0,0,0,3.24.588,6.154,6.154,0,0,0,2.691-.534,3.834,3.834,0,0,0,1.678-1.49,4.2,4.2,0,0,0,.573-2.2,3.709,3.709,0,0,0-1.459-3.106,6.811,6.811,0,0,0-4.237-1.13h-2.385v-2.338h1.633a7.042,7.042,0,0,0,2.894-.549,4.39,4.39,0,0,0,1.9-1.53,3.91,3.91,0,0,0,.667-2.251,3.266,3.266,0,0,0-1.036-2.542,4.016,4.016,0,0,0-2.809-.941,6.81,6.81,0,0,0-2.988.682,8.6,8.6,0,0,0-2.33,1.577l-.989-2.134a9.932,9.932,0,0,1,2.864-1.773,9.589,9.589,0,0,1,3.742-.705,8.161,8.161,0,0,1,3.467.69,5.3,5.3,0,0,1,2.3,1.945,5.224,5.224,0,0,1,.807,2.887,5.125,5.125,0,0,1-1.294,3.538,6.6,6.6,0,0,1-3.428,1.985,7.435,7.435,0,0,1,4.1,1.852,5.192,5.192,0,0,1,1.576,3.984,6,6,0,0,1-.972,3.4,6.3,6.3,0,0,1-2.761,2.267,10.094,10.094,0,0,1-4.158.8,13.69,13.69,0,0,1-3.782-.534"/>
          <path id="路径_193" data-name="路径 193" d="M851.808,610.06q-.391-.957-.837-2.261t-.728-2.246q.063.909.11,2.562t.047,3.144v14.394h-2.707V602.182h3.88l5.961,14.718a42.86,42.86,0,0,1,1.846,5.284q.688-2.189,1.956-5.235l6.086-14.767h3.786v23.471H868.3V611.259q0-1.993.219-5.706a52.082,52.082,0,0,1-1.8,4.977l-6.29,15.155h-2.3Z"/>
          <path id="路径_194" data-name="路径 194" d="M886.306,625.653a16.367,16.367,0,0,1-.25-2.415,7.771,7.771,0,0,1-2.449,1.945,7.067,7.067,0,0,1-3.34.794,5.713,5.713,0,0,1-2.613-.584,4.354,4.354,0,0,1-1.83-1.734,5.464,5.464,0,0,1-.673-2.8,5.061,5.061,0,0,1,1.752-4.028q1.752-1.515,5.82-1.515a24.4,24.4,0,0,1,3.239.226V615.1a5.387,5.387,0,0,0-1.049-3.777,3.9,3.9,0,0,0-2.941-1.086,9.769,9.769,0,0,0-2.6.373,13.524,13.524,0,0,0-2.4.891l-.5-2.285a12.691,12.691,0,0,1,2.543-.884,13.662,13.662,0,0,1,3.387-.413,7.758,7.758,0,0,1,3.449.7,4.8,4.8,0,0,1,2.206,2.367,10.67,10.67,0,0,1,.79,4.506v6.873q0,1.085.126,3.29Zm-2.542-2.731a6.523,6.523,0,0,0,2.2-1.743v-3.76a25.661,25.661,0,0,0-2.894-.179q-2.8,0-3.889.941a3.17,3.17,0,0,0-1.087,2.528,2.877,2.877,0,0,0,.775,2.22,2.959,2.959,0,0,0,2.088.714,6.083,6.083,0,0,0,2.809-.721"/>
          <path id="路径_195" data-name="路径 195" d="M894.982,624.713a6.006,6.006,0,0,1-1.2-4.2v-9.935h-2.222l.391-2.027,1.925-.292.219-4.036,2.535-.421v4.457h5.006l-.391,2.319h-4.615v9.644a4.092,4.092,0,0,0,.625,2.528,2.336,2.336,0,0,0,1.956.8,7.49,7.49,0,0,0,2.409-.5l.5,2.091a8.58,8.58,0,0,1-1.658.6,8.107,8.107,0,0,1-2.034.243,4.523,4.523,0,0,1-3.45-1.264"/>
          <path id="路径_196" data-name="路径 196" d="M917.269,617.062H906.051a7.446,7.446,0,0,0,1.432,4.887,5.039,5.039,0,0,0,4.044,1.629,10.8,10.8,0,0,0,4.741-1.118l.672,2.139a12.137,12.137,0,0,1-2.683,1.022,13.61,13.61,0,0,1-3.293.356,8.183,8.183,0,0,1-4.279-1.054,6.622,6.622,0,0,1-2.66-3.039,11.5,11.5,0,0,1-.9-4.773,11.933,11.933,0,0,1,.938-4.944,7.153,7.153,0,0,1,2.621-3.161,6.977,6.977,0,0,1,3.872-1.086,6.153,6.153,0,0,1,3.763,1.118,6.586,6.586,0,0,1,2.229,2.943,10.691,10.691,0,0,1,.72,3.963Zm-2.894-2.107a6.107,6.107,0,0,0-1.181-3.607,3.42,3.42,0,0,0-2.747-1.207,3.66,3.66,0,0,0-2.823,1.224,6.54,6.54,0,0,0-1.447,3.59Z"/>
          <path id="路径_197" data-name="路径 197" d="M933.134,614.007A5.568,5.568,0,0,1,935,616.073a6.227,6.227,0,0,1,.681,2.967,6.477,6.477,0,0,1-.915,3.444,6.091,6.091,0,0,1-2.676,2.334,9.8,9.8,0,0,1-4.232.835H921.1V602.182h6.273a8.251,8.251,0,0,1,5.233,1.418,4.752,4.752,0,0,1,1.776,3.931,5.427,5.427,0,0,1-1.087,3.429,5.925,5.925,0,0,1-2.9,2,7,7,0,0,1,2.738,1.046M924,611.989h2.847a5.007,5.007,0,0,0,2.425-.568,4.044,4.044,0,0,0,1.612-1.531,4.125,4.125,0,0,0,.563-2.116,2.719,2.719,0,0,0-1.134-2.383,5.723,5.723,0,0,0-3.293-.794H924Zm7.463,10.13a3.986,3.986,0,0,0,1.3-3.193,4.088,4.088,0,0,0-1.455-3.388,6.536,6.536,0,0,0-4.177-1.167H924v8.867h3.52a5.919,5.919,0,0,0,3.943-1.119"/>
          <path id="路径_198" data-name="路径 198" d="M941.825,624.931a7.175,7.175,0,0,1-2.761-3.039,10.5,10.5,0,0,1-1-4.765,11.12,11.12,0,0,1,1-4.871,7.779,7.779,0,0,1,10.967-3.234,7.383,7.383,0,0,1,2.754,3.153,10.943,10.943,0,0,1,.985,4.79,10.64,10.64,0,0,1-1.024,4.838,7.357,7.357,0,0,1-2.824,3.1,7.831,7.831,0,0,1-4.084,1.07,7.709,7.709,0,0,1-4.013-1.046m7.768-3.039a8.216,8.216,0,0,0,1.174-4.717,8.906,8.906,0,0,0-1.244-5.008,4.111,4.111,0,0,0-3.653-1.864,4.052,4.052,0,0,0-3.623,1.807,8.649,8.649,0,0,0-1.2,4.839,9.825,9.825,0,0,0,.579,3.565,4.839,4.839,0,0,0,1.705,2.286,4.6,4.6,0,0,0,2.722.794,4.007,4.007,0,0,0,3.536-1.7"/>
          <path id="路径_199" data-name="路径 199" d="M959.646,624.931a7.178,7.178,0,0,1-2.762-3.039,10.515,10.515,0,0,1-1-4.765,11.135,11.135,0,0,1,1-4.871,7.779,7.779,0,0,1,10.967-3.234,7.37,7.37,0,0,1,2.754,3.153,10.943,10.943,0,0,1,.986,4.79,10.64,10.64,0,0,1-1.025,4.838,7.357,7.357,0,0,1-2.824,3.1,7.83,7.83,0,0,1-4.083,1.07,7.706,7.706,0,0,1-4.013-1.046m7.768-3.039a8.216,8.216,0,0,0,1.173-4.717,8.906,8.906,0,0,0-1.244-5.008,4.111,4.111,0,0,0-3.653-1.864,4.049,4.049,0,0,0-3.622,1.807,8.649,8.649,0,0,0-1.2,4.839,9.847,9.847,0,0,0,.579,3.565,4.852,4.852,0,0,0,1.705,2.286,4.6,4.6,0,0,0,2.723.794,4.008,4.008,0,0,0,3.536-1.7"/>
          <path id="路径_200" data-name="路径 200" d="M974.955,600.788l2.879-.324v15.982l7.322-8.186h3.285l-6.6,7.245,7.243,10.147h-3.442L979.9,617.4l-2.065,1.832v6.418h-2.879Z"/>
          <path id="路径_201" data-name="路径 201" d="M1005.166,605.666l-4.242,2.867-1.156-2.143,5.55-3.7h2.677v22.937h-2.828Z"/>
        </g>
      </g>
    </g>
    <path id="路径_202" data-name="路径 202" class="cls-1" d="M1.2-11.1q.641-.266,1.14-.421a6.168,6.168,0,0,1,.952-.219A7.187,7.187,0,0,1,4.3-11.8a4.683,4.683,0,0,1,1.981.4,3.125,3.125,0,0,1,1.349,1.136,2.97,2.97,0,0,1,.478,1.657,4.006,4.006,0,0,1-.154,1.1,4.825,4.825,0,0,1-.517,1.149,9.946,9.946,0,0,1-.918,1.268Q5.97-4.432,5.09-3.536A22.369,22.369,0,0,1,2.554-1.3a6.505,6.505,0,0,1,1.238-.085H8.361V0H.931V-1.767Q1.853-2.552,2.677-3.3t1.67-1.664A11.407,11.407,0,0,0,5.76-6.823a3.4,3.4,0,0,0,.568-1.719A1.688,1.688,0,0,0,5.683-9.9a2.494,2.494,0,0,0-1.644-.533,5.2,5.2,0,0,0-2.656.845Zm12.879-.764a3.442,3.442,0,0,1,2.011.555A3.616,3.616,0,0,1,17.315-9.86,6.913,6.913,0,0,1,17.9-7.938a14.5,14.5,0,0,1,.158,2.2,11.884,11.884,0,0,1-.329,2.869A4.655,4.655,0,0,1,16.512-.658a3.274,3.274,0,0,1-2.43.888A3.176,3.176,0,0,1,11.657-.7a4.932,4.932,0,0,1-1.2-2.3,12.574,12.574,0,0,1-.325-2.912,11.568,11.568,0,0,1,.337-2.84,4.755,4.755,0,0,1,1.213-2.225A3.222,3.222,0,0,1,14.083-11.862ZM14.066-10.5a1.607,1.607,0,0,0-1.208.538,3.506,3.506,0,0,0-.769,1.58,10.525,10.525,0,0,0-.26,2.519A11.091,11.091,0,0,0,12.276-2.6a1.81,1.81,0,0,0,1.84,1.46,1.8,1.8,0,0,0,1.674-1.187,8.467,8.467,0,0,0,.564-3.5,10.642,10.642,0,0,0-.26-2.549,3.536,3.536,0,0,0-.769-1.58A1.657,1.657,0,0,0,14.066-10.5Zm5.927-.6q.641-.266,1.14-.421a6.168,6.168,0,0,1,.952-.219,7.187,7.187,0,0,1,1.008-.064,4.683,4.683,0,0,1,1.981.4,3.125,3.125,0,0,1,1.349,1.136A2.97,2.97,0,0,1,26.9-8.608a4.006,4.006,0,0,1-.154,1.1,4.825,4.825,0,0,1-.517,1.149,9.946,9.946,0,0,1-.918,1.268q-.555.662-1.435,1.559A22.369,22.369,0,0,1,21.342-1.3a6.505,6.505,0,0,1,1.238-.085h4.569V0h-7.43V-1.767q.922-.785,1.746-1.536t1.67-1.664a11.407,11.407,0,0,0,1.413-1.856,3.4,3.4,0,0,0,.568-1.719A1.688,1.688,0,0,0,24.472-9.9a2.494,2.494,0,0,0-1.644-.533,5.2,5.2,0,0,0-2.656.845Zm12.879-.764a3.442,3.442,0,0,1,2.011.555A3.616,3.616,0,0,1,36.1-9.86a6.913,6.913,0,0,1,.581,1.922,14.5,14.5,0,0,1,.158,2.2,11.884,11.884,0,0,1-.329,2.869A4.655,4.655,0,0,1,35.3-.658a3.274,3.274,0,0,1-2.43.888A3.176,3.176,0,0,1,30.446-.7a4.932,4.932,0,0,1-1.2-2.3,12.574,12.574,0,0,1-.325-2.912,11.568,11.568,0,0,1,.337-2.84,4.755,4.755,0,0,1,1.213-2.225A3.222,3.222,0,0,1,32.871-11.862ZM32.854-10.5a1.607,1.607,0,0,0-1.208.538,3.506,3.506,0,0,0-.769,1.58,10.525,10.525,0,0,0-.26,2.519A11.091,11.091,0,0,0,31.065-2.6a1.81,1.81,0,0,0,1.84,1.46,1.8,1.8,0,0,0,1.674-1.187,8.467,8.467,0,0,0,.564-3.5,10.642,10.642,0,0,0-.26-2.549,3.536,3.536,0,0,0-.769-1.58A1.657,1.657,0,0,0,32.854-10.5Z" transform="translate(1759.069 914.862)"/>
  </g>
</svg>
