<svg xmlns="http://www.w3.org/2000/svg" xmlns:xlink="http://www.w3.org/1999/xlink" width="265" height="42" viewBox="0 0 265 42">
  <defs>
    <clipPath id="clip-path">
      <rect id="矩形_2" data-name="矩形 2" width="265" height="42" transform="translate(170 255)"/>
    </clipPath>
  </defs>
  <g id="蒙版组_1" data-name="蒙版组 1" transform="translate(-170 -255)" clip-path="url(#clip-path)">
    <g id="组_1" data-name="组 1">
      <path id="路径_3" data-name="路径 3" d="M312.62,1.94h4.853a8.564,8.564,0,0,1,5.357,1.442,4.981,4.981,0,0,1,1.848,4.181,6.266,6.266,0,0,1-.869,3.324,5.792,5.792,0,0,1-2.438,2.207,7.963,7.963,0,0,1-3.591.782,11.826,11.826,0,0,1-2.647-.307v7.616h-2.5Zm8.288,8.8a3.915,3.915,0,0,0,1.239-3.087,3.258,3.258,0,0,0-1.216-2.832,5.983,5.983,0,0,0-3.527-.88h-2.288v7.685a12.469,12.469,0,0,0,2.183.226,5.249,5.249,0,0,0,3.608-1.112" transform="translate(39.001 254.184)" fill="#231815"/>
      <path id="路径_4" data-name="路径 4" d="M337.39,13.928q0-1.2-.11-3.585h2.264c.052.394.1.875.145,1.436s.075,1.014.093,1.338a13.127,13.127,0,0,1,1.158-1.593,4.592,4.592,0,0,1,1.32-1.06,3.631,3.631,0,0,1,1.74-.4,4.633,4.633,0,0,1,1.3.174l-.348,2.166a4.228,4.228,0,0,0-1.066-.133,3.411,3.411,0,0,0-2.137.654,9.174,9.174,0,0,0-1.94,2.172V24.6h-2.444Z" transform="translate(28.623 250.767)" fill="#231815"/>
      <path id="路径_5" data-name="路径 5" d="M354.4,24.019a5.965,5.965,0,0,1-2.346-2.5,8.351,8.351,0,0,1-.851-3.9,8.866,8.866,0,0,1,.851-4,6.237,6.237,0,0,1,2.375-2.629,7.042,7.042,0,0,1,6.95,0,6.128,6.128,0,0,1,2.317,2.589,8.687,8.687,0,0,1,.834,3.927,8.479,8.479,0,0,1-.869,3.967,6.1,6.1,0,0,1-2.4,2.542,6.851,6.851,0,0,1-3.475.88,6.765,6.765,0,0,1-3.411-.857m6.6-2.5a6.527,6.527,0,0,0,1-3.863,7.106,7.106,0,0,0-1.06-4.112,3.533,3.533,0,0,0-3.1-1.523,3.475,3.475,0,0,0-3.052,1.459,6.915,6.915,0,0,0-1.014,3.973,7.877,7.877,0,0,0,.486,2.9A3.793,3.793,0,0,0,358,22.9a3.429,3.429,0,0,0,3-1.4" transform="translate(22.763 250.759)" fill="#231815"/>
      <path id="路径_6" data-name="路径 6" d="M223.62,1.78h4.853a8.565,8.565,0,0,1,5.357,1.442A4.981,4.981,0,0,1,235.678,7.4a6.29,6.29,0,0,1-.869,3.33,5.884,5.884,0,0,1-2.438,2.207,8.039,8.039,0,0,1-3.591.776,11.826,11.826,0,0,1-2.647-.307v7.61h-2.5Zm8.288,8.815A3.932,3.932,0,0,0,233.147,7.5a3.258,3.258,0,0,0-1.216-2.832A5.983,5.983,0,0,0,228.4,3.8h-2.288v7.674a12.469,12.469,0,0,0,2.183.226,5.276,5.276,0,0,0,3.608-1.1" transform="translate(76.457 254.251)" fill="#231815"/>
      <path id="路径_7" data-name="路径 7" d="M255.519,16.555H246.6V14.731L255.519,1.48h2.444V14.522h2.855l-.33,2.062h-2.525v4.309h-2.444Zm0-2.033V4.677L248.9,14.523Z" transform="translate(66.786 254.377)" fill="#231815"/>
      <path id="路径_8" data-name="路径 8" d="M274.485,18.6q-1.581-2.5-1.575-7.216a14.182,14.182,0,0,1,1.627-7.442,5.38,5.38,0,0,1,4.9-2.624A5.253,5.253,0,0,1,284.186,3.8c1.048,1.656,1.575,4.054,1.575,7.228a14.294,14.294,0,0,1-1.622,7.442,5.386,5.386,0,0,1-4.917,2.629,5.212,5.212,0,0,1-4.737-2.5m7.8-1.546a14.442,14.442,0,0,0,.961-5.954,14.9,14.9,0,0,0-.9-5.792A3.052,3.052,0,0,0,279.4,3.26q-3.956,0-3.95,8.108a14.4,14.4,0,0,0,.9,5.751,3.029,3.029,0,0,0,2.9,1.986,3.162,3.162,0,0,0,3.012-2.05" transform="translate(55.713 254.45)" fill="#231815"/>
      <path id="路径_9" data-name="路径 9" d="M12.759,9.58H3.915V1.79H0v19.3H3.915V13.257h8.844v7.836H16.68V1.79H12.759Z" transform="translate(170.567 254.247)" fill="#231815"/>
      <path id="路径_10" data-name="路径 10" d="M50.888,12.84c0,3.139-1.558,4.813-4.39,4.813s-4.413-1.737-4.413-4.946V1.8H38.17V12.84c0,5.427,3.017,8.542,8.276,8.542S54.8,18.209,54.8,12.7V1.79H50.888Z" transform="translate(154.503 254.247)" fill="#231815"/>
      <path id="路径_11" data-name="路径 11" d="M123.468,15.06,119.084,1.78h-3.2L111.5,15.06,107.24,1.792h-4.17l6.73,19.3h3.243l4.39-12.678,4.39,12.678h3.266l6.712-19.3h-4.06Z" transform="translate(127.19 254.251)" fill="#231815"/>
      <path id="路径_12" data-name="路径 12" d="M161.993,12.8h7.124V9.281h-7.124V5.325h10.344V1.81H158.13V21.09h14.577V17.574H161.993Z" transform="translate(104.018 254.238)" fill="#231815"/>
      <rect id="矩形_2-2" data-name="矩形 2" width="3.863" height="19.28" transform="translate(281.399 256.037)" fill="#231815"/>
      <path id="路径_13" data-name="路径 13" d="M84.909,17.062l1.737,4.019h4.106L82.3,1.79H78.822l-8.5,19.292h4l1.737-4.019ZM80.484,6.672l2.971,6.909H77.53Z" transform="translate(140.973 254.247)" fill="#231815"/>
      <path id="路径_14" data-name="路径 14" d="M412.228,59.768A8.774,8.774,0,1,0,403.46,51a8.774,8.774,0,0,0,8.768,8.77" transform="translate(-39.229 237.232)" fill="#de0012"/>
      <path id="路径_15" data-name="路径 15" d="M410.582,50.609c-1.656-.064-2.1,2.317-2.207,2.687a.08.08,0,0,1,0,.041,4.159,4.159,0,0,1-.793-.174l-.116.33a3.144,3.144,0,0,0,.851.214,10.838,10.838,0,0,1-.579,1.813,3.834,3.834,0,0,0-1-.133c-.73,0-.99.342-1.008.579-.046.579.666.828,1.158.828a2.114,2.114,0,0,0,1.465-.521,17.792,17.792,0,0,0,5.531,1.025,25.355,25.355,0,0,0,6.828-.985l-.1-.347a21.191,21.191,0,0,1-6.591.736,17.126,17.126,0,0,1-5.282-.909s.087-.156.133-.255a15.281,15.281,0,0,0,.66-1.836s2.05-.579,2.05-2.2a.956.956,0,0,0-.967-.875m.075.463a.4.4,0,0,1,.405.486,2.033,2.033,0,0,1-1.506,1.68s.33-2.166,1.1-2.166m3.29,1.124c-.342,0-.579.139-.579.463s.272.4.579.4.579-.127.579-.463-.353-.4-.579-.4m4.581,1.158a1.558,1.558,0,0,0-1.546,1.355v.116a1.216,1.216,0,0,1-.793.423c-.342,0-.4-.278-.4-.463s.168-.985.637-.985a.538.538,0,0,1,.4.208L417,53.58a1.158,1.158,0,0,0-.66-.174,1.558,1.558,0,0,0-1.622,1.355.6.6,0,0,1,0,.139.811.811,0,0,1-.579.307c-.208,0-.208-.162-.208-.232s.4-1.512.4-1.512h-1.083l-.417,1.425a3.11,3.11,0,0,1-1.431.481c-.423.029-.579-.232-.579-.382v-.1h.307c.127,0,1.378-.1,1.378-.869,0-.446-.452-.579-1.008-.579a1.559,1.559,0,0,0-1.737,1.4c0,.759.579.985,1.355.985a3.851,3.851,0,0,0,1.737-.521s.052.521.736.521a2.05,2.05,0,0,0,1.257-.521,1.2,1.2,0,0,0,1.008.5,1.929,1.929,0,0,0,1.251-.579.938.938,0,0,0,.909.544,1.158,1.158,0,0,0,.851-.347.683.683,0,0,0,.643.347,1.679,1.679,0,0,0,1.025-.4l-.1-.347a.863.863,0,0,1-.388.174.2.2,0,0,1-.191-.214,12.212,12.212,0,0,1,.405-1.512h-.985l-.041.156a.718.718,0,0,0-.66-.272m-7,.388a.23.23,0,0,1,.249.208c0,.689-.869.579-.869.579s.122-.822.62-.788m7.193,0a.3.3,0,0,1,.307.29s-.116,1.2-.695,1.2c-.266,0-.272-.3-.272-.388,0-.22.18-1.1.66-1.1m-12.22,2.027h.133a2.675,2.675,0,0,1,.793.18,1.737,1.737,0,0,1-.793.347c-.272,0-.446-.174-.446-.272s.156-.237.313-.255" transform="translate(-40.183 233.702)" fill="#fff"/>
      <path id="路径_16" data-name="路径 16" d="M239.532,56.931a2.624,2.624,0,0,1-.869.156,1.9,1.9,0,0,1-1.645-.822,2.577,2.577,0,0,1-.376-.851,3.972,3.972,0,0,1-.122-.979,3.736,3.736,0,0,1,.127-.985,2.409,2.409,0,0,1,.388-.846,2.05,2.05,0,0,1,.678-.579,2.212,2.212,0,0,1,1.4-.185,1.737,1.737,0,0,1,.417.139l-.046.475a1.234,1.234,0,0,0-.405-.185,1.923,1.923,0,0,0-.429-.052,1.477,1.477,0,0,0-.788.2,1.679,1.679,0,0,0-.515.533,2.421,2.421,0,0,0-.284.724,4.092,4.092,0,0,0-.081.788,3.582,3.582,0,0,0,.087.776,2.4,2.4,0,0,0,.29.718,1.6,1.6,0,0,0,.51.533,1.43,1.43,0,0,0,.776.2,1.639,1.639,0,0,0,.429-.052,1.916,1.916,0,0,0,.417-.162Z" transform="translate(31.028 233.2)" fill="#231815"/>
      <path id="路径_17" data-name="路径 17" d="M248.954,54.417a5.461,5.461,0,0,1-.075.9,2.9,2.9,0,0,1-.278.857,1.778,1.778,0,0,1-.544.643,1.436,1.436,0,0,1-.874.255,1.5,1.5,0,0,1-.9-.249,1.737,1.737,0,0,1-.533-.643,2.739,2.739,0,0,1-.261-.857,6.191,6.191,0,0,1-.075-.9,4.961,4.961,0,0,1,.087-.9,2.9,2.9,0,0,1,.278-.857,1.778,1.778,0,0,1,.556-.643,1.39,1.39,0,0,1,.863-.255,1.5,1.5,0,0,1,.9.249,1.737,1.737,0,0,1,.539.637,2.9,2.9,0,0,1,.261.857,6.258,6.258,0,0,1,.07.915m-.452,0a6.66,6.66,0,0,0-.041-.73,2.5,2.5,0,0,0-.18-.73,1.442,1.442,0,0,0-.4-.579,1.025,1.025,0,0,0-.7-.22,1,1,0,0,0-.689.226,1.483,1.483,0,0,0-.4.579,2.8,2.8,0,0,0-.185.736c0,.261-.041.5-.041.718V54.9a3.745,3.745,0,0,0,.064.5,3.082,3.082,0,0,0,.139.481,1.5,1.5,0,0,0,.237.405,1.054,1.054,0,0,0,.857.382,1.037,1.037,0,0,0,.7-.226,1.483,1.483,0,0,0,.4-.579,2.49,2.49,0,0,0,.18-.736,6.56,6.56,0,0,0,.046-.712" transform="translate(27.286 233.218)" fill="#231815"/>
      <rect id="矩形_3" data-name="矩形 3" width="1.465" height="0.417" transform="translate(278.482 287.6)" fill="#231815"/>
      <path id="路径_18" data-name="路径 18" d="M262.24,57.039V51.89h2.137v.41h-1.714v1.871h1.627v.388h-1.627v2.085h1.8v.4Z" transform="translate(20.203 233.162)" fill="#231815"/>
      <path id="路径_19" data-name="路径 19" d="M272.971,57.039l-2.108-4.6v4.6h-.423V51.89h.614l2.108,4.627V51.89h.429v5.149Z" transform="translate(16.752 233.162)" fill="#231815"/>
      <path id="路径_20" data-name="路径 20" d="M283.563,56.809a2.079,2.079,0,0,1-.579.226,2.473,2.473,0,0,1-.579.069,2.079,2.079,0,0,1-1-.226,1.946,1.946,0,0,1-.678-.579,2.486,2.486,0,0,1-.388-.851,3.9,3.9,0,0,1-.127-.973,3.474,3.474,0,0,1,.139-.973,2.688,2.688,0,0,1,.4-.851,2.12,2.12,0,0,1,.678-.579,1.842,1.842,0,0,1,.944-.232,2.629,2.629,0,0,1,.55.064,2.253,2.253,0,0,1,.521.2l-.046.486a1.575,1.575,0,0,0-.515-.243,2.039,2.039,0,0,0-.579-.087,1.407,1.407,0,0,0-.764.2,1.737,1.737,0,0,0-.515.527,2.671,2.671,0,0,0-.29.724,3.36,3.36,0,0,0-.093.788,3.443,3.443,0,0,0,.1.8,2.388,2.388,0,0,0,.3.724,1.7,1.7,0,0,0,.544.51,1.546,1.546,0,0,0,.811.2,1.419,1.419,0,0,0,.359-.041,1.25,1.25,0,0,0,.336-.127V54.689h-.863v-.4h1.332Z" transform="translate(12.641 233.184)" fill="#231815"/>
      <rect id="矩形_4" data-name="矩形 4" width="0.423" height="5.149" transform="translate(298.851 285.052)" fill="#231815"/>
      <path id="路径_21" data-name="路径 21" d="M298.721,57.039l-2.1-4.6v4.6h-.429V51.89h.62l2.108,4.627V51.89h.423v5.149Z" transform="translate(5.916 233.162)" fill="#231815"/>
      <path id="路径_22" data-name="路径 22" d="M306.48,57.039V51.89h2.143v.41h-1.714v1.871h1.627v.388h-1.627v2.085h1.8v.4Z" transform="translate(1.585 233.162)" fill="#231815"/>
      <path id="路径_23" data-name="路径 23" d="M314.68,57.039V51.89h2.137v.41h-1.708v1.871h1.627v.388h-1.627v2.085h1.8v.4Z" transform="translate(-1.866 233.162)" fill="#231815"/>
      <path id="路径_24" data-name="路径 24" d="M325.287,57.038l-.643-1.772-.1-.243a.994.994,0,0,0-.122-.2.536.536,0,0,0-.446-.185h-.62v2.4h-.429V51.889h1.158a1.332,1.332,0,0,1,.973.359,1.269,1.269,0,0,1,.371.973,1.333,1.333,0,0,1-.255.828,1.159,1.159,0,0,1-.753.411.579.579,0,0,1,.324.151.892.892,0,0,1,.18.307l.8,2.12Zm-.3-3.811a.863.863,0,0,0-.284-.695,1.158,1.158,0,0,0-.735-.22h-.62v1.934H324a1,1,0,0,0,.747-.255,1.083,1.083,0,0,0,.237-.747" transform="translate(-5.338 233.163)" fill="#231815"/>
      <path id="路径_25" data-name="路径 25" d="M331.83,57.039V51.89h2.137v.41h-1.714v1.871h1.627v.388h-1.627v2.085h1.8v.4Z" transform="translate(-9.083 233.162)" fill="#231815"/>
      <path id="路径_26" data-name="路径 26" d="M343.133,54.464a3.7,3.7,0,0,1-.139,1.048,2.12,2.12,0,0,1-.429.817,1.94,1.94,0,0,1-.724.515,2.571,2.571,0,0,1-1.037.185H340V51.881h.579a2.5,2.5,0,0,1,1.934.643,2.722,2.722,0,0,1,.62,1.923m-.452,0a3.731,3.731,0,0,0-.1-.869,1.842,1.842,0,0,0-.319-.689,1.512,1.512,0,0,0-.579-.458,2.062,2.062,0,0,0-.869-.162h-.376v4.344h.487a1.772,1.772,0,0,0,.828-.174,1.419,1.419,0,0,0,.562-.44,1.884,1.884,0,0,0,.3-.695,3.823,3.823,0,0,0,.093-.828" transform="translate(-12.522 233.171)" fill="#231815"/>
      <path id="路径_27" data-name="路径 27" d="M358.783,57.039h-.5l-1.043-4.674-1.031,4.674h-.5L354.52,51.89h.458l.985,4.68L357,51.89h.51l1.042,4.68.979-4.68h.429Z" transform="translate(-18.632 233.162)" fill="#231815"/>
      <rect id="矩形_5" data-name="矩形 5" width="0.423" height="5.149" transform="translate(343.608 285.052)" fill="#231815"/>
      <path id="路径_28" data-name="路径 28" d="M374.077,52.3v4.743h-.423V52.3H372.49v-.41h2.757v.41Z" transform="translate(-26.195 233.162)" fill="#231815"/>
      <path id="路径_29" data-name="路径 29" d="M383.582,57.039V54.554h-2.01v2.485h-.423V51.89h.423v2.264h2.01V51.89h.423v5.149Z" transform="translate(-29.84 233.162)" fill="#231815"/>
    </g>
  </g>
</svg>
