<svg xmlns="http://www.w3.org/2000/svg" xmlns:xlink="http://www.w3.org/1999/xlink" width="426" height="71" viewBox="0 0 426 71">
  <defs>
    <clipPath id="clip-path">
      <rect id="矩形_1" data-name="矩形 1" width="426" height="71"/>
    </clipPath>
  </defs>
  <g id="画板_6" data-name="画板 – 6" clip-path="url(#clip-path)">
    <g id="text">
      <path id="路径_4906" data-name="路径 4906" d="M312.62,1.94h7.807q5.646,0,8.618,2.32a8.012,8.012,0,0,1,2.972,6.726,10.08,10.08,0,0,1-1.4,5.348,9.316,9.316,0,0,1-3.922,3.55,12.81,12.81,0,0,1-5.776,1.258,19.024,19.024,0,0,1-4.258-.494V32.9h-4.015ZM325.952,16.1a6.3,6.3,0,0,0,1.994-4.966,5.241,5.241,0,0,0-1.957-4.556,9.623,9.623,0,0,0-5.674-1.416h-3.68V17.526a20.059,20.059,0,0,0,3.512.363,8.443,8.443,0,0,0,5.8-1.789" transform="translate(-21.37 -0.133)" fill="#231815"/>
      <path id="路径_4907" data-name="路径 4907" d="M337.457,16.283q0-1.929-.177-5.767h3.643c.084.634.158,1.407.233,2.31s.121,1.63.149,2.152a21.109,21.109,0,0,1,1.863-2.562,7.387,7.387,0,0,1,2.124-1.7,5.841,5.841,0,0,1,2.8-.652,7.453,7.453,0,0,1,2.1.279l-.559,3.484a6.8,6.8,0,0,0-1.714-.214,5.487,5.487,0,0,0-3.438,1.053,14.756,14.756,0,0,0-3.121,3.494v15.3H337.42Z" transform="translate(-23.056 -0.688)" fill="#231815"/>
      <path id="路径_4908" data-name="路径 4908" d="M356.352,32.5a9.6,9.6,0,0,1-3.773-4.015,13.436,13.436,0,0,1-1.37-6.279,14.266,14.266,0,0,1,1.37-6.428,10.034,10.034,0,0,1,3.82-4.23,11.329,11.329,0,0,1,11.18,0,9.857,9.857,0,0,1,3.727,4.164,13.974,13.974,0,0,1,1.342,6.317,13.642,13.642,0,0,1-1.4,6.382,9.81,9.81,0,0,1-3.857,4.09,11.022,11.022,0,0,1-5.59,1.416,10.881,10.881,0,0,1-5.487-1.379m10.611-4.015a10.5,10.5,0,0,0,1.612-6.214,11.431,11.431,0,0,0-1.7-6.615,5.683,5.683,0,0,0-4.994-2.45,5.59,5.59,0,0,0-4.91,2.348,11.124,11.124,0,0,0-1.63,6.391,12.669,12.669,0,0,0,.783,4.658,6.1,6.1,0,0,0,6.056,4.062,5.515,5.515,0,0,0,4.826-2.245" transform="translate(-24.007 -0.689)" fill="#231815"/>
      <path id="路径_4909" data-name="路径 4909" d="M223.62,1.78h7.807q5.646,0,8.618,2.32a8.012,8.012,0,0,1,2.972,6.726,10.118,10.118,0,0,1-1.4,5.357,9.465,9.465,0,0,1-3.922,3.55,12.931,12.931,0,0,1-5.776,1.248,19.023,19.023,0,0,1-4.258-.494V32.729h-4.015Zm13.332,14.18a6.326,6.326,0,0,0,1.994-4.975,5.241,5.241,0,0,0-1.956-4.556,9.624,9.624,0,0,0-5.674-1.407h-3.68V17.366a20.058,20.058,0,0,0,3.512.363,8.487,8.487,0,0,0,5.8-1.77" transform="translate(-15.286 -0.122)" fill="#231815"/>
      <path id="路径_4910" data-name="路径 4910" d="M260.947,25.731H246.6V22.8L260.947,1.48h3.932V22.461h4.593l-.531,3.317h-4.062v6.931h-3.932Zm0-3.27V6.623L250.308,22.461Z" transform="translate(-16.857 -0.101)" fill="#231815"/>
      <path id="路径_4911" data-name="路径 4911" d="M275.444,29.119q-2.543-4.025-2.534-11.608,0-7.742,2.618-11.972a8.655,8.655,0,0,1,7.882-4.22,8.45,8.45,0,0,1,7.639,3.987c1.686,2.664,2.534,6.521,2.534,11.627s-.866,9.149-2.609,11.972a8.664,8.664,0,0,1-7.91,4.23,8.385,8.385,0,0,1-7.621-4.015m12.549-2.487q1.546-3.279,1.547-9.577a23.959,23.959,0,0,0-1.453-9.316,4.91,4.91,0,0,0-4.742-3.289q-6.363,0-6.354,13.043,0,6.046,1.453,9.251a4.873,4.873,0,0,0,4.658,3.2,5.087,5.087,0,0,0,4.845-3.3" transform="translate(-18.655 -0.089)" fill="#231815"/>
      <path id="路径_4912" data-name="路径 4912" d="M20.524,14.321H6.3V1.79H0V32.842H6.3v-12.6H20.524v12.6h6.307V1.79H20.524Z" transform="translate(0 -0.122)" fill="#231815"/>
      <path id="路径_4913" data-name="路径 4913" d="M58.629,19.566c0,5.05-2.506,7.742-7.062,7.742s-7.1-2.8-7.1-7.956V1.809h-6.3V19.566c0,8.729,4.854,13.742,13.313,13.742S64.927,28.2,64.927,19.333V1.79h-6.3Z" transform="translate(-2.609 -0.122)" fill="#231815"/>
      <path id="路径_4914" data-name="路径 4914" d="M135.882,23.143,128.83,1.78h-5.143l-7.053,21.363L109.778,1.8H103.07L113.9,32.841h5.217l7.062-20.394,7.062,20.394h5.254L149.289,1.8h-6.531Z" transform="translate(-7.046 -0.122)" fill="#231815"/>
      <path id="路径_4915" data-name="路径 4915" d="M164.344,19.483H175.8V13.828H164.344V7.465h16.639V1.81H158.13V32.824h23.449V27.169H164.344Z" transform="translate(-10.809 -0.124)" fill="#231815"/>
      <rect id="矩形_5988" data-name="矩形 5988" width="6.214" height="31.014" transform="translate(178.288 1.668)" fill="#231815"/>
      <path id="路径_4916" data-name="路径 4916" d="M93.788,26.357l2.795,6.466h6.605L89.586,1.79H84L70.32,32.823h6.428l2.795-6.466ZM86.67,9.644l4.78,11.114H81.919Z" transform="translate(-4.807 -0.122)" fill="#231815"/>
      <path id="路径_4917" data-name="路径 4917" d="M417.565,70.449A14.114,14.114,0,1,0,403.46,56.34a14.114,14.114,0,0,0,14.105,14.109" transform="translate(-97.579 0.551)" fill="#de0012"/>
      <path id="路径_4918" data-name="路径 4918" d="M413.537,50.61c-2.665-.1-3.382,3.727-3.55,4.323a.131.131,0,0,1,0,.065,6.691,6.691,0,0,1-1.276-.279l-.186.531a5.057,5.057,0,0,0,1.369.345,17.42,17.42,0,0,1-.932,2.916,6.167,6.167,0,0,0-1.612-.214c-1.174,0-1.593.55-1.621.932-.074.932,1.071,1.332,1.863,1.332a3.4,3.4,0,0,0,2.357-.838,28.62,28.62,0,0,0,8.9,1.649,40.789,40.789,0,0,0,10.984-1.584l-.158-.559s-3.633,1.267-10.6,1.183a27.548,27.548,0,0,1-8.5-1.463s.14-.252.214-.41a24.552,24.552,0,0,0,1.062-2.953s3.3-.932,3.3-3.54a1.537,1.537,0,0,0-1.556-1.407m.121.745a.643.643,0,0,1,.652.783,3.27,3.27,0,0,1-2.422,2.7s.531-3.484,1.77-3.484m5.292,1.807c-.55,0-.932.224-.932.745s.438.652.932.652.932-.2.932-.745-.568-.652-.932-.652m7.369,1.863a2.506,2.506,0,0,0-2.488,2.18c0,.168,0,.186,0,.186a1.957,1.957,0,0,1-1.276.68c-.55,0-.652-.447-.652-.745s.27-1.584,1.025-1.584a.867.867,0,0,1,.652.335l.224-.717a1.863,1.863,0,0,0-1.062-.279,2.506,2.506,0,0,0-2.609,2.18.973.973,0,0,1,0,.224,1.3,1.3,0,0,1-.932.494c-.335,0-.335-.261-.335-.373s.652-2.432.652-2.432h-1.742l-.671,2.292a5,5,0,0,1-2.3.773c-.68.047-.932-.373-.932-.615v-.158h.494c.2,0,2.217-.158,2.217-1.4,0-.717-.727-.932-1.621-.932-1.658,0-2.8,1.025-2.8,2.245s.932,1.584,2.18,1.584a6.2,6.2,0,0,0,2.795-.838s.084.838,1.183.838a3.3,3.3,0,0,0,2.022-.838,1.929,1.929,0,0,0,1.621.8,3.1,3.1,0,0,0,2.012-.932,1.509,1.509,0,0,0,1.463.876,1.863,1.863,0,0,0,1.37-.559,1.1,1.1,0,0,0,1.034.559,2.7,2.7,0,0,0,1.649-.652l-.158-.559a1.389,1.389,0,0,1-.624.279.317.317,0,0,1-.307-.345,19.64,19.64,0,0,1,.652-2.432H427.53l-.065.252A1.155,1.155,0,0,0,426.4,55m-11.254.624a.371.371,0,0,1,.4.335c0,1.109-1.4.932-1.4.932s.2-1.323,1-1.267m11.571,0a.475.475,0,0,1,.494.466s-.186,1.929-1.118,1.929c-.428,0-.438-.484-.438-.624,0-.354.289-1.77,1.062-1.77m-19.658,3.261h.214a4.3,4.3,0,0,1,1.276.289,2.794,2.794,0,0,1-1.276.559c-.438,0-.717-.279-.717-.438s.252-.382.5-.41" transform="translate(-97.734 -0.022)" fill="#fff"/>
      <path id="路径_4919" data-name="路径 4919" d="M241.365,60.054a4.22,4.22,0,0,1-1.4.252,3.065,3.065,0,0,1-2.646-1.323,4.146,4.146,0,0,1-.606-1.37,6.39,6.39,0,0,1-.2-1.574,6.008,6.008,0,0,1,.2-1.584,3.875,3.875,0,0,1,.624-1.36,3.3,3.3,0,0,1,1.09-.932,3.559,3.559,0,0,1,2.245-.3,2.8,2.8,0,0,1,.671.224l-.074.764a1.985,1.985,0,0,0-.652-.3,3.092,3.092,0,0,0-.689-.084,2.376,2.376,0,0,0-1.267.326,2.7,2.7,0,0,0-.829.857,3.892,3.892,0,0,0-.456,1.165,6.576,6.576,0,0,0-.13,1.267,5.764,5.764,0,0,0,.14,1.248,3.858,3.858,0,0,0,.466,1.155,2.58,2.58,0,0,0,.82.857,2.3,2.3,0,0,0,1.248.326,2.637,2.637,0,0,0,.689-.084,3.083,3.083,0,0,0,.671-.261Z" transform="translate(-86.168 -0.732)" fill="#231815"/>
      <path id="路径_4920" data-name="路径 4920" d="M251.112,56.036a8.8,8.8,0,0,1-.121,1.444,4.659,4.659,0,0,1-.447,1.379,2.861,2.861,0,0,1-.876,1.034,2.311,2.311,0,0,1-1.407.41,2.413,2.413,0,0,1-1.453-.4,2.8,2.8,0,0,1-.857-1.034,4.406,4.406,0,0,1-.419-1.379,9.972,9.972,0,0,1-.121-1.453,7.983,7.983,0,0,1,.14-1.453A4.659,4.659,0,0,1,246,53.2a2.86,2.86,0,0,1,.894-1.034,2.236,2.236,0,0,1,1.388-.41,2.413,2.413,0,0,1,1.453.4,2.8,2.8,0,0,1,.866,1.025,4.66,4.66,0,0,1,.419,1.379,10.071,10.071,0,0,1,.112,1.472m-.727,0a10.743,10.743,0,0,0-.065-1.174,4.016,4.016,0,0,0-.289-1.174,2.32,2.32,0,0,0-.643-.932,1.649,1.649,0,0,0-1.127-.354,1.6,1.6,0,0,0-1.109.363,2.385,2.385,0,0,0-.643.932,4.5,4.5,0,0,0-.3,1.183c0,.419-.065.8-.065,1.155v.755a6.019,6.019,0,0,0,.1.811,4.968,4.968,0,0,0,.224.773,2.4,2.4,0,0,0,.382.652,1.7,1.7,0,0,0,1.379.615,1.668,1.668,0,0,0,1.118-.363,2.385,2.385,0,0,0,.643-.932,4.007,4.007,0,0,0,.289-1.183,10.555,10.555,0,0,0,.075-1.146" transform="translate(-86.776 -0.729)" fill="#231815"/>
      <rect id="矩形_5989" data-name="矩形 5989" width="2.357" height="0.671" transform="translate(167.942 55.137)" fill="#231815"/>
      <path id="路径_4921" data-name="路径 4921" d="M262.24,60.172V51.89h3.438v.652H262.92v3.009h2.618v.624H262.92v3.354h2.9v.643Z" transform="translate(-87.926 -0.744)" fill="#231815"/>
      <path id="路径_4922" data-name="路径 4922" d="M274.511,60.172l-3.391-7.407v7.407h-.68V51.89h.988l3.391,7.444V51.89h.689v8.282Z" transform="translate(-88.487 -0.744)" fill="#231815"/>
      <path id="路径_4923" data-name="路径 4923" d="M285.6,59.833a3.345,3.345,0,0,1-.932.363,3.978,3.978,0,0,1-.932.112,3.345,3.345,0,0,1-1.612-.363,3.131,3.131,0,0,1-1.09-.932,4,4,0,0,1-.624-1.37,6.271,6.271,0,0,1-.2-1.565,5.591,5.591,0,0,1,.224-1.565,4.324,4.324,0,0,1,.652-1.37,3.409,3.409,0,0,1,1.09-.932,2.963,2.963,0,0,1,1.519-.373,4.228,4.228,0,0,1,.885.1,3.624,3.624,0,0,1,.839.317l-.075.783a2.534,2.534,0,0,0-.829-.391,3.28,3.28,0,0,0-.932-.14,2.264,2.264,0,0,0-1.23.326,2.8,2.8,0,0,0-.829.848,4.291,4.291,0,0,0-.466,1.165,5.4,5.4,0,0,0-.149,1.267,5.536,5.536,0,0,0,.158,1.295,3.84,3.84,0,0,0,.484,1.165,2.739,2.739,0,0,0,.876.82,2.488,2.488,0,0,0,1.3.317,2.282,2.282,0,0,0,.578-.065,2.012,2.012,0,0,0,.54-.2V56.424h-1.388v-.643H285.6Z" transform="translate(-89.154 -0.734)" fill="#231815"/>
      <rect id="矩形_5990" data-name="矩形 5990" width="0.68" height="8.282" transform="translate(200.707 51.146)" fill="#231815"/>
      <path id="路径_4924" data-name="路径 4924" d="M300.261,60.172l-3.382-7.407v7.407h-.689V51.89h1l3.391,7.444V51.89h.68v8.282Z" transform="translate(-90.247 -0.744)" fill="#231815"/>
      <path id="路径_4925" data-name="路径 4925" d="M306.48,60.172V51.89h3.447v.652h-2.758v3.009h2.618v.624h-2.618v3.354h2.888v.643Z" transform="translate(-90.95 -0.744)" fill="#231815"/>
      <path id="路径_4926" data-name="路径 4926" d="M314.68,60.172V51.89h3.438v.652H315.37v3.009h2.618v.624H315.37v3.354h2.888v.643Z" transform="translate(-91.511 -0.744)" fill="#231815"/>
      <path id="路径_4927" data-name="路径 4927" d="M326.722,60.172l-1.034-2.851-.158-.391a1.593,1.593,0,0,0-.2-.326.862.862,0,0,0-.717-.3h-1V60.17h-.689V51.89h1.863a2.143,2.143,0,0,1,1.565.578,2.04,2.04,0,0,1,.6,1.565,2.143,2.143,0,0,1-.41,1.332,1.863,1.863,0,0,1-1.211.661.932.932,0,0,1,.522.242,1.436,1.436,0,0,1,.289.494l1.3,3.41Zm-.475-6.13a1.388,1.388,0,0,0-.457-1.118,1.863,1.863,0,0,0-1.183-.354h-1v3.112h1.043a1.6,1.6,0,0,0,1.2-.41,1.743,1.743,0,0,0,.382-1.2" transform="translate(-92.075 -0.744)" fill="#231815"/>
      <path id="路径_4928" data-name="路径 4928" d="M331.83,60.172V51.89h3.438v.652H332.51v3.009h2.618v.624H332.51v3.354h2.9v.643Z" transform="translate(-92.683 -0.744)" fill="#231815"/>
      <path id="路径_4929" data-name="路径 4929" d="M345.04,56.044a5.951,5.951,0,0,1-.224,1.686,3.41,3.41,0,0,1-.689,1.314,3.121,3.121,0,0,1-1.165.829,4.136,4.136,0,0,1-1.668.3H340V51.889h.932a4.025,4.025,0,0,1,3.112,1.034,4.379,4.379,0,0,1,1,3.093m-.727,0a6,6,0,0,0-.158-1.4,2.964,2.964,0,0,0-.512-1.109,2.432,2.432,0,0,0-.932-.736,3.317,3.317,0,0,0-1.4-.261h-.606V59.5h.783a2.851,2.851,0,0,0,1.332-.279,2.283,2.283,0,0,0,.9-.708A3.027,3.027,0,0,0,344.2,57.4a6.139,6.139,0,0,0,.149-1.332" transform="translate(-93.241 -0.743)" fill="#231815"/>
      <path id="路径_4930" data-name="路径 4930" d="M361.377,60.172h-.81l-1.677-7.518-1.658,7.518h-.8l-1.91-8.282h.736l1.584,7.528,1.677-7.528h.82l1.677,7.528,1.574-7.528h.689Z" transform="translate(-94.234 -0.744)" fill="#231815"/>
      <rect id="矩形_5991" data-name="矩形 5991" width="0.68" height="8.282" transform="translate(272.705 51.146)" fill="#231815"/>
      <path id="路径_4931" data-name="路径 4931" d="M375.043,52.542v7.63h-.68v-7.63H372.49V51.89h4.435v.652Z" transform="translate(-95.462 -0.744)" fill="#231815"/>
      <path id="路径_4932" data-name="路径 4932" d="M385.063,60.172v-4H381.83v4h-.68V51.89h.68v3.643h3.233V51.89h.68v8.282Z" transform="translate(-96.054 -0.744)" fill="#231815"/>
    </g>
  </g>
</svg>
