<svg xmlns="http://www.w3.org/2000/svg" width="130.178" height="39.053" viewBox="0 0 130.178 39.053">
  <g id="组_8" data-name="组 8" transform="translate(-33.525 -25.881)">
    <g id="组_3" data-name="组 3">
      <g id="组_2" data-name="组 2">
        <g id="组_1" data-name="组 1">
          <path id="路径_1" data-name="路径 1" d="M154.519,25.881H41.659c-.3,0-.588.008-.886.013a12.708,12.708,0,0,0-1.931.17,6.435,6.435,0,0,0-1.832.6,6.227,6.227,0,0,0-1.56,1.136,6.067,6.067,0,0,0-1.136,1.563,6.361,6.361,0,0,0-.6,1.834,12.619,12.619,0,0,0-.173,1.929c-.009.3-.01.592-.014.888V56.8c0,.3,0,.589.014.888a12.607,12.607,0,0,0,.173,1.929,6.363,6.363,0,0,0,.6,1.836,6.23,6.23,0,0,0,2.7,2.692,6.441,6.441,0,0,0,1.832.607,12.971,12.971,0,0,0,1.931.171c.3.006.591.01.886.01.352,0,.7,0,1.055,0h111.8c.346,0,.7,0,1.045,0,.293,0,.6,0,.888-.01a12.815,12.815,0,0,0,1.928-.171,6.548,6.548,0,0,0,1.839-.607,6.048,6.048,0,0,0,1.558-1.136,6.144,6.144,0,0,0,1.139-1.556,6.353,6.353,0,0,0,.6-1.836,13,13,0,0,0,.179-1.929c0-.3,0-.589,0-.888.007-.351.007-.7.007-1.055V35.071c0-.353,0-.7-.007-1.052,0-.3,0-.592,0-.888a13.016,13.016,0,0,0-.179-1.929,6.35,6.35,0,0,0-.6-1.834,6.234,6.234,0,0,0-2.7-2.7,6.541,6.541,0,0,0-1.839-.6,12.558,12.558,0,0,0-1.928-.17c-.293-.005-.6-.011-.888-.013Z" fill="#020200"/>
          <path id="路径_2" data-name="路径 2" d="M41.664,64.091c-.294,0-.581,0-.872-.011a12.193,12.193,0,0,1-1.8-.157,5.638,5.638,0,0,1-1.6-.528,5.186,5.186,0,0,1-1.346-.98,5.1,5.1,0,0,1-.984-1.345,5.5,5.5,0,0,1-.523-1.6,11.952,11.952,0,0,1-.161-1.807c-.006-.2-.014-.88-.014-.88V34.019s.009-.666.014-.862a11.913,11.913,0,0,1,.16-1.8,5.533,5.533,0,0,1,.524-1.6,5.175,5.175,0,0,1,.978-1.348,5.356,5.356,0,0,1,1.351-.985,5.613,5.613,0,0,1,1.594-.524,12.068,12.068,0,0,1,1.807-.158l.87-.012h113.9l.88.012a11.947,11.947,0,0,1,1.791.157,5.7,5.7,0,0,1,1.611.528,5.318,5.318,0,0,1,1.341.979,5.371,5.371,0,0,1,.986,1.353,5.579,5.579,0,0,1,.516,1.589,12.428,12.428,0,0,1,.167,1.819c0,.273,0,.566,0,.858.008.361.008.7.008,1.052V55.744c0,.351,0,.692-.008,1.037,0,.313,0,.6,0,.9a12.192,12.192,0,0,1-.164,1.786,5.544,5.544,0,0,1-.521,1.609,5.276,5.276,0,0,1-.979,1.336,5.216,5.216,0,0,1-1.348.985,5.641,5.641,0,0,1-1.608.53,12.057,12.057,0,0,1-1.8.157c-.283.007-.578.011-.865.011l-1.045,0Z" fill="#fff"/>
        </g>
      </g>
    </g>
    <g id="组_4" data-name="组 4">
      <path id="路径_3" data-name="路径 3" d="M73.919,33.151h3.46l-.1.933H75.075v1.427h2.078v.87H75.075v1.58h2.332l-.084.942h-3.4Z" fill="#020200"/>
      <path id="路径_4" data-name="路径 4" d="M79.719,35.967l-1.788-2.816h1.307l1.129,1.962,1.195-1.962h1.275l-1.775,2.78L82.984,38.9H81.661l-1.3-2.165L79.06,38.9H77.784Z" fill="#020200"/>
      <path id="路径_5" data-name="路径 5" d="M83.683,33.151H85.3a2.805,2.805,0,0,1,1.724.455,1.548,1.548,0,0,1,.6,1.313,1.878,1.878,0,0,1-.26,1,1.715,1.715,0,0,1-.725.651,2.4,2.4,0,0,1-1.065.226,3.9,3.9,0,0,1-.731-.071V38.9H83.683Zm2.5,2.525a.955.955,0,0,0,.28-.741.818.818,0,0,0-.3-.712,1.512,1.512,0,0,0-.882-.214h-.441V35.88a3.154,3.154,0,0,0,.513.051A1.193,1.193,0,0,0,86.18,35.676Z" fill="#020200"/>
      <path id="路径_6" data-name="路径 6" d="M88.574,33.151h1.155V37.93h2.3l-.083.973H88.574Z" fill="#020200"/>
      <path id="路径_7" data-name="路径 7" d="M93.568,38.621a2.414,2.414,0,0,1-.979-1.015,3.267,3.267,0,0,1-.337-1.519,3.344,3.344,0,0,1,.361-1.591,2.529,2.529,0,0,1,1.039-1.053,3.279,3.279,0,0,1,1.6-.372,3.05,3.05,0,0,1,1.523.36,2.39,2.39,0,0,1,.973,1.011,3.248,3.248,0,0,1,.336,1.509,3.373,3.373,0,0,1-.365,1.607,2.532,2.532,0,0,1-1.043,1.055,3.267,3.267,0,0,1-1.587.369A3.057,3.057,0,0,1,93.568,38.621Zm2.535-.8a1.619,1.619,0,0,0,.582-.733,2.742,2.742,0,0,0,.194-1.066,3.025,3.025,0,0,0-.17-1.049,1.56,1.56,0,0,0-.546-.735,1.809,1.809,0,0,0-1.921,0,1.7,1.7,0,0,0-.59.745,2.622,2.622,0,0,0-.2,1.027,2.859,2.859,0,0,0,.186,1.061,1.62,1.62,0,0,0,.568.74,1.575,1.575,0,0,0,.942.273A1.634,1.634,0,0,0,96.1,37.822Zm-1.679-5.1,1.041-1.244,1.149.1-1.466,1.231Z" fill="#020200"/>
      <path id="路径_8" data-name="路径 8" d="M99.152,33.151h1.887a2.5,2.5,0,0,1,1.545.4,1.349,1.349,0,0,1,.516,1.134,1.733,1.733,0,0,1-.619,1.363,1.947,1.947,0,0,1-.532.318L103.7,38.9h-1.327l-1.426-2.237h-.639V38.9H99.152Zm1.645,2.661a1.281,1.281,0,0,0,.585-.129.944.944,0,0,0,.4-.363,1.026,1.026,0,0,0,.141-.544.68.68,0,0,0-.246-.582,1.192,1.192,0,0,0-.722-.185h-.644v1.8Z" fill="#020200"/>
      <path id="路径_9" data-name="路径 9" d="M107.605,37.445h-2.2l-.52,1.458H103.72l2.233-5.756h1.136l2.28,5.756h-1.235Zm-1.883-.89h1.561l-.552-1.521q-.119-.313-.234-.735-.1.35-.226.731Z" fill="#020200"/>
      <path id="路径_10" data-name="路径 10" d="M110.072,33.151h1.156V37.93h2.3l-.083.973h-3.377Z" fill="#020200"/>
      <path id="路径_11" data-name="路径 11" d="M115.067,38.621a2.414,2.414,0,0,1-.979-1.015,3.267,3.267,0,0,1-.337-1.519,3.344,3.344,0,0,1,.361-1.591,2.527,2.527,0,0,1,1.038-1.053,3.282,3.282,0,0,1,1.6-.372,3.051,3.051,0,0,1,1.524.36,2.39,2.39,0,0,1,.973,1.011,3.248,3.248,0,0,1,.336,1.509,3.373,3.373,0,0,1-.365,1.607,2.538,2.538,0,0,1-1.043,1.055,3.269,3.269,0,0,1-1.587.369A3.057,3.057,0,0,1,115.067,38.621Zm2.535-.8a1.611,1.611,0,0,0,.581-.733,2.742,2.742,0,0,0,.195-1.066,3.025,3.025,0,0,0-.17-1.049,1.555,1.555,0,0,0-.547-.735,1.6,1.6,0,0,0-.963-.274,1.622,1.622,0,0,0-.958.278,1.71,1.71,0,0,0-.59.745,2.64,2.64,0,0,0-.2,1.027,2.858,2.858,0,0,0,.187,1.061,1.62,1.62,0,0,0,.568.74,1.574,1.574,0,0,0,.941.273A1.64,1.64,0,0,0,117.6,37.822Z" fill="#020200"/>
      <path id="路径_12" data-name="路径 12" d="M123.189,33.151h3.46l-.1.933h-2.208v1.427h2.078v.87h-2.078v1.58h2.332l-.084.942h-3.4Z" fill="#020200"/>
      <path id="路径_13" data-name="路径 13" d="M127.777,33.151h1.331l2.661,4.266q-.039-.714-.04-1.172V33.151h1.061V38.9H131.5l-2.7-4.334q.043.75.043,1.351V38.9h-1.06Z" fill="#020200"/>
    </g>
    <g id="组_7" data-name="组 7">
      <g id="组_5" data-name="组 5">
        <path id="路径_14" data-name="路径 14" d="M81.806,52.275H77.288L76.182,55.3H74.2L78.62,44.011H80.5L85.022,55.3H82.935Zm-3.949-1.534H81.23l-1.208-3.233q-.249-.669-.491-1.479-.217.716-.475,1.464Z" fill="#020200"/>
        <path id="路径_15" data-name="路径 15" d="M85.919,48.949q0-.935-.062-2.056h1.806A9.069,9.069,0,0,1,87.8,47.96a3.4,3.4,0,0,1,2.57-1.223A2.9,2.9,0,0,1,93.089,48.5a5.377,5.377,0,0,1,.44,2.325,5.753,5.753,0,0,1-.5,2.516,3.6,3.6,0,0,1-1.406,1.581,4,4,0,0,1-2.087.538,5.135,5.135,0,0,1-1.69-.288v3.473l-1.924.164Zm5.059,4.3a3.832,3.832,0,0,0,.588-2.309,3.386,3.386,0,0,0-.487-2.045,1.554,1.554,0,0,0-1.3-.635,2.088,2.088,0,0,0-1.036.265,3.887,3.887,0,0,0-.9.709v4.5a2.965,2.965,0,0,0,.669.222,3.636,3.636,0,0,0,.756.082A2,2,0,0,0,90.978,53.245Z" fill="#020200"/>
        <path id="路径_16" data-name="路径 16" d="M94.76,48.949q0-.935-.062-2.056H96.5a9.067,9.067,0,0,1,.14,1.067,3.406,3.406,0,0,1,2.57-1.223A2.9,2.9,0,0,1,101.93,48.5a5.378,5.378,0,0,1,.44,2.325,5.753,5.753,0,0,1-.5,2.516,3.587,3.587,0,0,1-1.4,1.581,4,4,0,0,1-2.088.538,5.144,5.144,0,0,1-1.69-.288v3.473l-1.924.164Zm5.059,4.3a3.832,3.832,0,0,0,.588-2.309,3.386,3.386,0,0,0-.487-2.045,1.553,1.553,0,0,0-1.3-.635,2.088,2.088,0,0,0-1.036.265,3.887,3.887,0,0,0-.9.709v4.5a2.974,2.974,0,0,0,.67.222,3.629,3.629,0,0,0,.756.082A2,2,0,0,0,99.819,53.245Z" fill="#020200"/>
        <path id="路径_17" data-name="路径 17" d="M106,54.764a4.678,4.678,0,0,1-1.917-1.975,6.494,6.494,0,0,1-.669-3.037,6.331,6.331,0,0,1,.771-3.229,4.964,4.964,0,0,1,2.1-1.994,6.55,6.55,0,0,1,2.979-.666,7.914,7.914,0,0,1,1.858.214,8.066,8.066,0,0,1,1.647.588l-.49,1.48a6.812,6.812,0,0,0-2.929-.732,4.086,4.086,0,0,0-2.06.5,3.4,3.4,0,0,0-1.375,1.476,5.179,5.179,0,0,0-.491,2.352,5.677,5.677,0,0,0,.378,2.142,3.167,3.167,0,0,0,1.192,1.48,3.614,3.614,0,0,0,2.052.545,6.743,6.743,0,0,0,1.122-.094,5.877,5.877,0,0,0,1.051-.272V51.263h-2.609v-1.5h4.478v4.752a9.991,9.991,0,0,1-2.029.693,9.51,9.51,0,0,1-2.114.241A5.993,5.993,0,0,1,106,54.764Z" fill="#020200"/>
        <path id="路径_18" data-name="路径 18" d="M120.02,55.3a7.206,7.206,0,0,1-.132-1.113,3.714,3.714,0,0,1-1.157.9,3.434,3.434,0,0,1-1.609.37,3.032,3.032,0,0,1-1.32-.284,2.2,2.2,0,0,1-.946-.857,2.628,2.628,0,0,1-.351-1.4,2.4,2.4,0,0,1,.881-1.951,4.628,4.628,0,0,1,2.936-.729,10.639,10.639,0,0,1,1.527.11V50.18a2.116,2.116,0,0,0-.476-1.569,1.89,1.89,0,0,0-1.363-.456,5.352,5.352,0,0,0-1.316.179,7,7,0,0,0-1.231.428l-.3-1.4a7.467,7.467,0,0,1,1.356-.428,7.847,7.847,0,0,1,1.776-.195,4.664,4.664,0,0,1,1.854.331,2.437,2.437,0,0,1,1.191,1.137,4.643,4.643,0,0,1,.429,2.17v3.341q0,.522.062,1.581Zm-1.153-1.557a3.079,3.079,0,0,0,.982-.717V51.465a12.37,12.37,0,0,0-1.286-.085,2.618,2.618,0,0,0-1.647.385,1.291,1.291,0,0,0-.455,1.04,1.188,1.188,0,0,0,.33.923,1.291,1.291,0,0,0,.9.3A2.705,2.705,0,0,0,118.867,53.74Z" fill="#020200"/>
        <path id="路径_19" data-name="路径 19" d="M123.448,53.28V43.349l1.916-.156v9.744a1.2,1.2,0,0,0,.183.76.709.709,0,0,0,.58.222,2.163,2.163,0,0,0,.506-.086l.227,1.379a3.268,3.268,0,0,1-.667.175,4.5,4.5,0,0,1-.744.066Q123.448,55.453,123.448,53.28Z" fill="#020200"/>
        <path id="路径_20" data-name="路径 20" d="M128.238,53.28V43.349l1.916-.156v9.744a1.211,1.211,0,0,0,.183.76.71.71,0,0,0,.581.222,2.171,2.171,0,0,0,.506-.086l.226,1.379a3.257,3.257,0,0,1-.666.175,4.5,4.5,0,0,1-.744.066Q128.237,55.453,128.238,53.28Z" fill="#020200"/>
        <path id="路径_21" data-name="路径 21" d="M139.626,51.34h-5.5q.132,2.642,2.516,2.641a5.342,5.342,0,0,0,1.211-.144,7.205,7.205,0,0,0,1.188-.386l.42,1.317a7.151,7.151,0,0,1-3.17.685,4.623,4.623,0,0,1-2.259-.506,3.253,3.253,0,0,1-1.382-1.457,5.178,5.178,0,0,1-.464-2.29,5.421,5.421,0,0,1,.491-2.4,3.574,3.574,0,0,1,1.367-1.534,3.831,3.831,0,0,1,2.021-.53,3.4,3.4,0,0,1,1.991.557,3.337,3.337,0,0,1,1.184,1.484,5.284,5.284,0,0,1,.385,2.048Zm-1.877-1.222a2.386,2.386,0,0,0-.507-1.507,1.539,1.539,0,0,0-1.207-.5,1.624,1.624,0,0,0-1.219.506,2.7,2.7,0,0,0-.635,1.5Z" fill="#020200"/>
        <path id="路径_22" data-name="路径 22" d="M141.176,49q0-.693-.062-2.111h1.8c.032.234.061.513.09.837s.048.588.058.791a7.083,7.083,0,0,1,.658-.931,2.683,2.683,0,0,1,.756-.615,2,2,0,0,1,.985-.238,2.722,2.722,0,0,1,.764.094l-.242,1.666a2.133,2.133,0,0,0-.623-.085,2.044,2.044,0,0,0-1.184.347,4.749,4.749,0,0,0-1.083,1.141v5.4h-1.916Z" fill="#020200"/>
        <path id="路径_23" data-name="路径 23" d="M147.377,58.736a4.72,4.72,0,0,1-.693-.167l.351-1.4c.129.036.293.071.49.1a3.322,3.322,0,0,0,.561.051q1.276,0,1.916-1.644l.125-.312-3.1-8.474h2.064l1.558,4.736a15.331,15.331,0,0,1,.49,1.861q.219-.911.514-1.822l1.581-4.775h1.94l-3.092,8.513a8.744,8.744,0,0,1-.943,1.948,3.3,3.3,0,0,1-1.2,1.1,3.567,3.567,0,0,1-1.663.358A5.154,5.154,0,0,1,147.377,58.736Z" fill="#020200"/>
      </g>
      <g id="组_6" data-name="组 6">
        <path id="形状_1_拷贝_25" data-name="形状 1 拷贝 25" d="M49.044,32.985H59.908a6.99,6.99,0,0,1,6.99,6.99V50.84a6.99,6.99,0,0,1-6.99,6.99H49.044a6.99,6.99,0,0,1-6.99-6.99V39.975A6.99,6.99,0,0,1,49.044,32.985Z" fill="#b01630"/>
        <path id="路径_24" data-name="路径 24" d="M46.974,45.409h.659v3.249h-.659V47.339H45.486v1.319h-.659V45.409h.659V46.72h1.488Zm3.712,1.86c0,.528-.262.81-.738.81s-.743-.29-.743-.833V45.411h-.659v1.858a1.289,1.289,0,0,0,1.393,1.437,1.307,1.307,0,0,0,1.406-1.464V45.409h-.659Zm7.617.374-.738-2.234h-.537l-.738,2.234-.717-2.232h-.7L56,48.658h.546l.738-2.133.739,2.133h.55l1.129-3.247h-.683Zm2.584-.383h1.2v-.592h-1.2V46h1.74v-.592h-2.39v3.244H62.69v-.592h-1.8Zm2.588,1.393h.651V45.409h-.651Zm-10.827-.674-.3.677h-.673l1.431-3.247h.582l1.425,3.247h-.691l-.292-.677Zm.245-.585h1l-.5-1.163Z" fill="#fff"/>
        <path id="路径_25" data-name="路径 25" d="M54.476,41.274a4.14,4.14,0,0,1-4.135-4.136h.584a3.551,3.551,0,1,0,7.1,0h.585A4.141,4.141,0,0,1,54.476,41.274Z" fill="#fff"/>
      </g>
    </g>
  </g>
</svg>
