<?xml version="1.0" encoding="UTF-8"?>
<svg width="327px" height="25px" viewBox="0 0 327 25" version="1.1" xmlns="http://www.w3.org/2000/svg" xmlns:xlink="http://www.w3.org/1999/xlink">
    <!-- Generator: Sketch 52.3 (67297) - http://www.bohemiancoding.com/sketch -->
    <title>Slice 1</title>
    <desc>Created with Sketch.</desc>
    <g id="Page-1" stroke="none" stroke-width="1" fill="none" fill-rule="evenodd">
        <g id="watchGT2" fill="#000000">
            <g id="分组">
                <polygon id="路径" points="15.5 9.7 4.8 9.7 4.8 0.3 0 0.3 0 23.7 4.8 23.7 4.8 14.2 15.5 14.2 15.5 23.7 20.2 23.7 20.2 0.3 15.5 0.3"></polygon>
                <path d="M42.3,13.7 C42.3,17.5 40.4,19.5 37,19.5 C33.5,19.5 31.6,17.4 31.6,13.5 L31.6,0.3 L26.8,0.3 L26.8,13.7 C26.8,20.3 30.5,24.1 36.8,24.1 C43.3,24 47,20.2 47,13.5 L47,0.3 L42.2,0.3 L42.2,13.7 L42.3,13.7 Z" id="路径"></path>
                <polygon id="路径" points="97.2 16.4 91.9 0.3 88 0.3 82.7 16.4 77.5 0.3 72.5 0.3 80.6 23.7 84.6 23.7 89.9 8.3 95.2 23.7 99.2 23.7 107.4 0.3 102.4 0.3"></polygon>
                <polygon id="路径" points="115.9 13.6 124.5 13.6 124.5 9.3 115.9 9.3 115.9 4.5 128.4 4.5 128.4 0.3 111.2 0.3 111.2 23.7 128.9 23.7 128.9 19.4 115.9 19.4"></polygon>
                <rect id="矩形" x="134.6" y="0.3" width="4.7" height="23.4"></rect>
                <path d="M67.2,18.8 L69.3,23.7 L74.3,23.7 L64,0.4 L63.9,0.3 L59.7,0.3 L49.4,23.7 L54.3,23.7 L56.3,19.2 L56.4,18.9 L67.2,18.9 L67.2,18.8 Z M61.8,6.2 L65.2,14 L65.4,14.5 L58.2,14.5 L58.4,14 L61.8,6.2 Z" id="形状" fill-rule="nonzero"></path>
            </g>
            <g id="分组" transform="translate(264.000000, 0.000000)">
                <path d="M5,22.5 C3.4,21.5 2.2,20.1 1.4,18.4 C0.6,16.6 0.2,14.6 0.2,12.3 C0.2,9.8 0.7,7.6 1.6,5.8 C2.5,4 3.8,2.6 5.5,1.6 C7.2,0.7 9.1,0.2 11.2,0.2 C12.5,0.2 13.7,0.4 14.8,0.7 C16,1 17,1.4 18,2 L17.3,3.6 C16.3,3.1 15.4,2.7 14.4,2.4 C13.4,2.1 12.4,2 11.3,2 C9.5,2 7.9,2.4 6.6,3.2 C5.2,4 4.2,5.2 3.4,6.7 C2.6,8.3 2.2,10.1 2.2,12.3 C2.2,14.2 2.5,15.9 3.1,17.4 C3.7,18.9 4.7,20.1 6,21 C7.3,21.9 8.9,22.3 10.8,22.3 C11.8,22.3 12.8,22.2 13.8,22 C14.8,21.8 15.8,21.5 16.6,21.1 L16.6,15.1 L10.5,15.1 L10.5,13.3 L18.5,13.3 L18.5,22 C17.3,22.6 16,23.1 14.7,23.4 C13.3,23.7 12,23.9 10.7,23.9 C8.5,23.9 6.6,23.4 5,22.5 Z" id="路径"></path>
                <polygon id="路径" points="27.5 2.1 20.4 2.1 20.7 0.4 36.5 0.4 36.2 2.1 29.4 2.1 29.4 23.6 27.5 23.6"></polygon>
            </g>
            <path d="M312.3,22.1 L314.6,19.8 C317,17.5 318.7,15.6 319.9,14.3 C321.1,13 322,11.7 322.7,10.4 C323.4,9.2 323.7,7.9 323.7,6.6 C323.7,5.5 323.5,4.6 323.1,3.9 C322.7,3.2 322.1,2.6 321.4,2.3 C320.7,2 319.9,1.8 319,1.8 C317.9,1.8 316.9,2 316.1,2.5 C315.2,3 314.4,3.7 313.5,4.6 L312.6,3 C313.4,2.1 314.4,1.4 315.5,0.9 C316.6,0.4 317.8,0.1 319.1,0.1 C320.3,0.1 321.4,0.3 322.4,0.8 C323.4,1.3 324.2,2 324.8,3 C325.4,4 325.7,5.2 325.7,6.6 C325.7,8 325.3,9.4 324.6,10.8 C323.9,12.2 322.9,13.6 321.6,14.9 C320.4,16.3 318.6,18.1 316.2,20.4 L314.9,21.7 L326.6,21.7 L326.3,23.5 L312.3,23.5 L312.3,22.1 Z" id="路径"></path>
            <g id="分组" transform="translate(153.000000, 0.000000)">
                <path d="M0.4,0.4 L2.4,0.4 L6.4,15.3 C7,17.7 7.5,19.6 7.7,20.9 C8,19.7 8.3,18.7 8.5,17.8 C8.7,16.9 9,15.9 9.3,14.8 L13.5,0.3 L15.4,0.3 L19.8,15.1 C20.2,16.4 20.5,17.5 20.7,18.4 C20.9,19.3 21.1,20.1 21.2,20.9 C21.5,19.5 22,17.7 22.6,15.4 L26.6,0.3 L28.5,0.3 L22.3,23.5 L20.4,23.5 L16.3,9.6 C15.8,8 15.5,6.8 15.2,5.8 C14.9,4.8 14.7,3.7 14.4,2.6 C13.8,4.9 13.2,7.2 12.5,9.5 L8.5,23.5 L6.6,23.5 L0.4,0.4 Z" id="路径"></path>
                <path d="M43.1,16.2 L32.9,16.2 L30.1,23.6 L28,23.6 L37.1,0.4 L38.6,0.4 L47.9,23.6 L46,23.6 L43.1,16.2 Z M36.8,6.1 L33.6,14.5 L42.5,14.5 L39.3,6.2 C38.9,5.3 38.5,4.2 38.1,2.9 C37.7,3.6 37.3,4.7 36.8,6.1 Z" id="形状" fill-rule="nonzero"></path>
                <polygon id="路径" points="52.8 2.1 45.7 2.1 46 0.4 61.8 0.4 61.5 2.1 54.7 2.1 54.7 23.6 52.8 23.6"></polygon>
                <path d="M66.9,22.5 C65.4,21.5 64.2,20.2 63.4,18.5 C62.6,16.8 62.3,14.7 62.3,12.4 C62.3,10 62.7,7.9 63.5,6.1 C64.3,4.3 65.4,2.8 66.9,1.8 C68.4,0.8 70.3,0.2 72.4,0.2 C74.6,0.2 76.7,0.8 78.7,1.9 L78,3.4 C77.1,2.9 76.2,2.5 75.3,2.2 C74.4,1.9 73.5,1.8 72.5,1.8 C70.7,1.8 69.2,2.2 68,3.1 C66.8,4 65.9,5.2 65.2,6.7 C64.6,8.2 64.3,10.1 64.3,12.1 C64.3,14.1 64.6,15.8 65.2,17.3 C65.8,18.8 66.7,20 68,20.8 C69.3,21.7 70.9,22.1 72.8,22.1 C73.8,22.1 74.7,22 75.7,21.7 C76.6,21.5 77.6,21.1 78.6,20.6 L79.2,22.2 C78.2,22.7 77.2,23.1 76.2,23.4 C75.2,23.7 74,23.8 72.7,23.8 C70.3,23.9 68.4,23.4 66.9,22.5 Z" id="路径"></path>
                <polygon id="路径" points="82.3 0.4 84.2 0.4 84.2 10.7 97.6 10.7 97.6 0.4 99.5 0.4 99.5 23.6 97.6 23.6 97.6 12.4 84.2 12.4 84.2 23.6 82.3 23.6"></polygon>
            </g>
        </g>
    </g>
</svg>