<svg xmlns="http://www.w3.org/2000/svg" xmlns:xlink="http://www.w3.org/1999/xlink" width="303" height="24" viewBox="0 0 303 24">
  <defs>
    <style>
      .cls-1 {
        fill: none;
      }

      .cls-2 {
        clip-path: url(#clip-画板_1);
      }

      .cls-3 {
        fill: #231815;
      }

      .cls-4 {
        clip-path: url(#clip-path);
      }

      .cls-5 {
        fill: rgba(255,255,255,0);
      }
    </style>
    <clipPath id="clip-path">
      <rect id="矩形_29" data-name="矩形 29" class="cls-1" width="300.231" height="24"/>
    </clipPath>
    <clipPath id="clip-画板_1">
      <rect width="303" height="24"/>
    </clipPath>
  </defs>
  <g id="画板_1" data-name="画板 – 1" class="cls-2">
    <rect class="cls-5" width="303" height="24"/>
    <g id="watch_fit" data-name="watch fit">
      <path id="路径_1" data-name="路径 1" class="cls-3" d="M15.492.5V9.954H4.755V.5H0V23.935H4.755V14.417H15.492v9.518h4.755V.5Z" transform="translate(0 -0.286)"/>
      <g id="组_2" data-name="组 2" class="cls-4">
        <path id="路径_2" data-name="路径 2" class="cls-3" d="M78.151,13.912c0,3.813-1.892,5.846-5.324,5.846s-5.362-2.093-5.362-5.991V.513H62.71v13.4c0,6.595,3.663,10.374,10.053,10.374S82.905,20.434,82.905,13.72V.5H78.151Z" transform="translate(-35.873 -0.286)"/>
        <path id="路径_3" data-name="路径 3" class="cls-3" d="M194.112,16.607,188.788.49h-3.877l-5.324,16.117L174.413.5H169.35l8.17,23.427h3.937L186.785,8.54l5.328,15.389h3.971L204.229.5H199.3Z" transform="translate(-96.875 -0.28)"/>
        <path id="路径_4" data-name="路径 4" class="cls-3" d="M264.5,13.871h8.653V9.6H264.5v-4.8h12.556V.54H259.81V23.945h17.7V19.674H264.5Z" transform="translate(-148.622 -0.309)"/>
        <rect id="矩形_27" data-name="矩形 27" class="cls-3" width="4.69" height="23.405" transform="translate(134.559 0.21)"/>
        <path id="路径_5" data-name="路径 5" class="cls-3" d="M133.253,19.044l2.1,4.879h4.986L130.052.5h-4.19L115.54,23.922h4.853l2.14-4.879ZM127.878,6.427l3.608,8.409H124.3Z" transform="translate(-66.093 -0.286)"/>
        <path id="路径_6" data-name="路径 6" class="cls-3" d="M617.35.87h12.274L629.3,2.633H619.237v8.5H628.7v1.746h-9.462V24.061H617.35Z" transform="translate(-353.149 -0.498)"/>
        <rect id="矩形_28" data-name="矩形 28" class="cls-3" width="1.887" height="23.191" transform="translate(279.556 0.372)"/>
        <path id="路径_7" data-name="路径 7" class="cls-3" d="M670.943,2.586H663.83L664.155.87h15.813l-.342,1.716h-6.783V24.061h-1.9Z" transform="translate(-379.737 -0.498)"/>
        <path id="路径_8" data-name="路径 8" class="cls-3" d="M358.36.79h1.986l3.989,14.94q.967,3.65,1.284,5.623.428-1.81.792-3.107t.835-3L371.421.79h1.917l4.4,14.795q.578,1.909.916,3.27t.518,2.5q.471-2.1,1.378-5.478L384.577.79h1.93l-6.244,23.2h-1.9L374.3,10.124c-.462-1.562-.83-2.842-1.1-3.852s-.535-2.054-.783-3.154q-.882,3.509-1.883,6.9L366.508,23.99h-1.883Z" transform="translate(-204.996 -0.452)"/>
        <path id="路径_9" data-name="路径 9" class="cls-3" d="M438.121,16.629H427.953l-2.8,7.361H423.1L432.2.79h1.554l9.312,23.2h-2.037Zm-6.3-10.121-3.231,8.422h8.872l-3.244-8.345q-.578-1.4-1.237-3.3-.372,1.091-1.16,3.223" transform="translate(-242.03 -0.452)"/>
        <path id="路径_10" data-name="路径 10" class="cls-3" d="M471.553,2.5H464.44L464.765.79h15.813L480.24,2.5h-6.787V23.977h-1.9Z" transform="translate(-265.678 -0.452)"/>
        <path id="路径_11" data-name="路径 11" class="cls-3" d="M507.661,22.424a8.748,8.748,0,0,1-3.454-4.027,15.2,15.2,0,0,1-1.143-6.133,16.262,16.262,0,0,1,1.16-6.351,9.621,9.621,0,0,1,3.424-4.331A9.505,9.505,0,0,1,513.19-.005a12.839,12.839,0,0,1,6.338,1.682l-.745,1.648a15.8,15.8,0,0,0-2.726-1.16,9.471,9.471,0,0,0-2.825-.428,7.592,7.592,0,0,0-4.472,1.284,7.759,7.759,0,0,0-2.76,3.6,14.636,14.636,0,0,0-.929,5.431,13.914,13.914,0,0,0,.907,5.213,7.545,7.545,0,0,0,2.8,3.531,8.38,8.38,0,0,0,4.776,1.284,11.37,11.37,0,0,0,2.876-.368,13.81,13.81,0,0,0,2.863-1.108l.569,1.643a16.262,16.262,0,0,1-3,1.168,13.134,13.134,0,0,1-3.492.428,10.656,10.656,0,0,1-5.713-1.434" transform="translate(-287.771 0.005)"/>
        <path id="路径_12" data-name="路径 12" class="cls-3" d="M549.95.79h1.887V11.052h13.357V.79h1.87V23.977h-1.87V12.8H551.837V23.977H549.95Z" transform="translate(-314.593 -0.452)"/>
      </g>
    </g>
  </g>
</svg>
